<svg width="56" height="56" viewBox="0 0 56 56" fill="none" xmlns="http://www.w3.org/2000/svg">
<path d="M27.5169 50.6334L14.5552 47.0352L11.6667 14.6377H43.406L40.5145 47.0301L27.5169 50.6334Z" fill="#264DE4"/>
<path d="M38.039 44.9679L40.51 17.2871H27.5364V47.8796L38.039 44.9679Z" fill="#2965F1"/>
<path d="M18.2886 29.3027L18.6447 33.2761H27.5364V29.3027H18.2886Z" fill="#EBEBEB"/>
<path d="M17.573 21.2603L17.9342 25.2337H27.5364V21.2603H27.5227H17.573Z" fill="#EBEBEB"/>
<path d="M27.5365 39.6219L27.5191 39.6266L23.0938 38.4317L22.811 35.2627H20.6606H18.8223L19.3789 41.5015L27.5182 43.761L27.5365 43.756V39.6219Z" fill="#EBEBEB"/>
<path d="M19.1365 5.8335H23.949V7.846H21.149V9.8585H23.949V11.871H19.1365V5.8335Z" fill="white"/>
<path d="M24.9114 5.8335H29.7239V7.5835H26.9239V7.9335H29.7239V11.9585H24.9114V10.121H27.7114V9.771H24.9114V5.8335Z" fill="white"/>
<path d="M30.6863 5.8335H35.4988V7.5835H32.6988V7.9335H35.4988V11.9585H30.6863V10.121H33.4863V9.771H30.6863V5.8335Z" fill="white"/>
<path d="M36.7589 29.3026L37.4762 21.2603H27.5227V25.2337H33.1217L32.7601 29.3026H27.5227V33.2759H32.4155L31.9543 38.4292L27.5227 39.6253V43.7591L35.6684 41.5015L35.7282 40.8302L36.6619 30.3695L36.7589 29.3026Z" fill="white"/>
</svg>
