<svg width="24" height="25" viewBox="0 0 24 25" fill="none" xmlns="http://www.w3.org/2000/svg">
<path d="M19.711 3.86355L2.24282 8.79049C2.09586 8.83194 1.96506 8.91725 1.86789 9.03503C1.77072 9.15281 1.71181 9.29745 1.69904 9.4496C1.68627 9.60176 1.72024 9.75418 1.79642 9.88651C1.8726 10.0188 1.98736 10.1248 2.12535 10.1901L10.1514 13.9919C10.3079 14.0661 10.434 14.1921 10.5081 14.3487L14.3099 22.3747C14.3753 22.5127 14.4812 22.6274 14.6135 22.7036C14.7458 22.7798 14.8983 22.8138 15.0504 22.801C15.2026 22.7882 15.3472 22.7293 15.465 22.6321C15.5828 22.535 15.6681 22.4042 15.7095 22.2572L20.6365 4.78898C20.6727 4.66067 20.674 4.52503 20.6403 4.39603C20.6067 4.26703 20.5392 4.14933 20.445 4.05506C20.3507 3.96079 20.233 3.89335 20.104 3.85969C19.975 3.82603 19.8394 3.82736 19.711 3.86355Z" stroke="white" stroke-width="2" stroke-linecap="round" stroke-linejoin="round"/>
<path d="M10.3933 14.1066L14.636 9.86395" stroke="white" stroke-width="2" stroke-linecap="round" stroke-linejoin="round"/>
</svg>
