<svg width="56" height="56" viewBox="0 0 56 56" fill="none" xmlns="http://www.w3.org/2000/svg">
<path d="M43.406 14.6377L40.5145 47.0301L27.5169 50.6334L14.5552 47.0352L11.6667 14.6377H43.406Z" fill="#E44D26"/>
<path d="M27.5364 47.8796L38.039 44.9679L40.51 17.2871H27.5364V47.8796Z" fill="#F16529"/>
<path d="M21.9154 25.2337H27.5364V21.2603H27.5227H17.573L17.6681 22.3263L18.6447 33.2759H27.5364V29.3026H22.2786L21.9154 25.2337Z" fill="#EBEBEB"/>
<path d="M22.811 35.2627H20.6606H18.8223L19.3789 41.5015L27.5182 43.761L27.5365 43.756V39.6219L27.5191 39.6266L23.0938 38.4317L22.811 35.2627Z" fill="#EBEBEB"/>
<path d="M14.6199 5.8335H16.6391V7.8285H18.4862V5.8335H20.5056V11.8748H18.4863V9.85185H16.6392V11.8748H14.62L14.6199 5.8335Z" fill="white"/>
<path d="M23.1607 7.8369H21.3831V5.8335H26.9586V7.8369H25.1801V11.8748H23.1608L23.1607 7.8369Z" fill="white"/>
<path d="M27.8435 5.8335H29.949L31.2442 7.95625L32.5381 5.8335H34.6444V11.8748H32.6334V8.88042L31.2442 11.0285H31.2095L29.8193 8.88042V11.8748H27.8435V5.8335Z" fill="white"/>
<path d="M35.6492 5.8335H37.669V9.87792H40.5087V11.8748H35.6492V5.8335Z" fill="white"/>
<path d="M27.5227 33.2761H32.4155L31.9543 38.4293L27.5227 39.6255V43.7593L35.6684 41.5017L35.7282 40.8304L36.6619 30.3697L36.7589 29.3027H35.6881H27.5227V33.2761Z" fill="white"/>
<path d="M27.5227 25.224V25.2337H37.1076H37.1204L37.2001 24.3406L37.3812 22.3263L37.4762 21.2603H27.5227V23.7281V25.224Z" fill="white"/>
</svg>
