<svg width="64" height="64" viewBox="0 0 64 64" fill="none" xmlns="http://www.w3.org/2000/svg">
<rect width="64" height="64" rx="32" fill="#1F2140"/>
<path d="M47.291 28.0649C46.7015 27.4503 46.0921 26.8149 45.8618 26.2581C45.6502 25.7466 45.6374 24.8995 45.625 24.0801C45.602 22.5553 45.5759 20.8271 44.3744 19.6256C43.1729 18.4241 41.4447 18.398 39.9199 18.375C39.1005 18.3626 38.2534 18.3498 37.7419 18.1382C37.1852 17.9079 36.5497 17.2985 35.9351 16.709C34.8555 15.6736 33.6316 14.5 32 14.5C30.3684 14.5 29.1446 15.6736 28.0649 16.709C27.4503 17.2985 26.8149 17.9079 26.2581 18.1382C25.7466 18.3498 24.8995 18.3626 24.0801 18.375C22.5553 18.398 20.8271 18.4241 19.6256 19.6256C18.4241 20.8271 18.398 22.5553 18.375 24.0801C18.3626 24.8995 18.3498 25.7466 18.1382 26.2581C17.9079 26.8148 17.2985 27.4503 16.709 28.0649C15.6736 29.1445 14.5 30.3684 14.5 32C14.5 33.6316 15.6736 34.8554 16.709 35.9351C17.2985 36.5497 17.9079 37.1851 18.1382 37.7419C18.3498 38.2534 18.3626 39.1005 18.375 39.9199C18.398 41.4447 18.4241 43.1729 19.6256 44.3744C20.8271 45.5759 22.5553 45.602 24.0801 45.625C24.8995 45.6374 25.7466 45.6502 26.2581 45.8618C26.8148 46.0921 27.4503 46.7015 28.0649 47.291C29.1445 48.3264 30.3684 49.5 32 49.5C33.6316 49.5 34.8554 48.3264 35.9351 47.291C36.5497 46.7015 37.1851 46.0921 37.7419 45.8618C38.2534 45.6502 39.1005 45.6374 39.9199 45.625C41.4447 45.602 43.1729 45.5759 44.3744 44.3744C45.5759 43.1729 45.602 41.4447 45.625 39.9199C45.6374 39.1005 45.6502 38.2534 45.8618 37.7419C46.0921 37.1852 46.7015 36.5497 47.291 35.9351C48.3264 34.8555 49.5 33.6316 49.5 32C49.5 30.3684 48.3264 29.1446 47.291 28.0649ZM30.7498 24.5C30.7498 24.1685 30.8815 23.8505 31.116 23.6161C31.3504 23.3817 31.6683 23.25 31.9998 23.25C32.3314 23.25 32.6493 23.3817 32.8837 23.6161C33.1181 23.8505 33.2498 24.1685 33.2498 24.5V33.25C33.2498 33.5815 33.1181 33.8995 32.8837 34.1339C32.6493 34.3683 32.3314 34.5 31.9998 34.5C31.6683 34.5 31.3504 34.3683 31.116 34.1339C30.8815 33.8995 30.7498 33.5815 30.7498 33.25V24.5ZM31.9999 40.75C31.6291 40.75 31.2666 40.64 30.9582 40.434C30.6499 40.228 30.4096 39.9351 30.2676 39.5925C30.1257 39.2499 30.0886 38.8729 30.1609 38.5092C30.2333 38.1455 30.4119 37.8114 30.6741 37.5492C30.9363 37.287 31.2704 37.1084 31.6341 37.036C31.9978 36.9637 32.3748 37.0008 32.7175 37.1427C33.0601 37.2846 33.3529 37.525 33.5589 37.8333C33.765 38.1416 33.8749 38.5042 33.8749 38.875C33.8749 39.3723 33.6774 39.8492 33.3257 40.2008C32.9741 40.5525 32.4972 40.75 31.9999 40.75H31.9999Z" fill="#FFCAEB"/>
</svg>
