<svg width="127" height="32" viewBox="0 0 127 32" fill="none" xmlns="http://www.w3.org/2000/svg">
<path d="M41.7219 16.7256L42.151 14.4424C42.151 14.4424 38.8467 13.4394 36.1574 15.2995V24.4332H39.0132V17.0125C40.1512 16.1554 41.7219 16.7256 41.7219 16.7256" fill="white"/>
<mask id="mask0_9411_137" style="mask-type:luminance" maskUnits="userSpaceOnUse" x="36" y="14" width="7" height="11">
<path fill-rule="evenodd" clip-rule="evenodd" d="M36.1574 15.2995C37.4513 14.4047 38.8877 14.1725 40.0298 14.1726C41.2614 14.1726 42.1511 14.4426 42.1511 14.4426L41.7218 16.7258C41.7218 16.7258 40.1512 16.1555 39.0132 17.0125V24.4332H36.1574V15.2995Z" fill="white"/>
</mask>
<g mask="url(#mask0_9411_137)">
<path d="M-137.685 52.7418L264.486 52.7418L264.486 -479.742H-137.685L-137.685 52.7418Z" fill="white"/>
</g>
<mask id="mask1_9411_137" style="mask-type:luminance" maskUnits="userSpaceOnUse" x="36" y="14" width="7" height="11">
<path fill-rule="evenodd" clip-rule="evenodd" d="M36.1574 15.2995C37.4513 14.4047 38.8875 14.1726 40.0298 14.1726C41.2614 14.1726 42.1511 14.4426 42.1511 14.4426L41.7218 16.7258C41.7218 16.7258 40.1512 16.1555 39.0132 17.0125V24.4332H36.1574V15.2995Z" fill="white"/>
</mask>
<g mask="url(#mask1_9411_137)">
<path d="M31.3696 28.908H46.9388V9.69794H31.3696V28.908Z" fill="white"/>
</g>
<path d="M17.1014 11.8386L19.9559 11.336V14.3065H22.7806V16.6821H19.9559V20.2248C19.9559 20.8283 20.0603 21.3074 20.2739 21.6617C20.4849 22.0214 20.9082 22.1997 21.5439 22.1997C21.8548 22.1997 22.1669 22.1718 22.4962 22.1127C22.8162 22.0526 23.1146 21.9754 23.3831 21.8743L23.787 24.0995C23.4414 24.238 23.0595 24.3583 22.6385 24.4602C22.2161 24.5611 21.6976 24.6138 21.0848 24.6138C20.3059 24.6138 19.6622 24.5076 19.1504 24.2971C18.6411 24.0866 18.2316 23.7912 17.9264 23.4142C17.6211 23.0406 17.4065 22.5821 17.286 22.0451C17.1633 21.5092 17.1014 20.9174 17.1014 20.2645V11.8386Z" fill="white"/>
<mask id="mask2_9411_137" style="mask-type:luminance" maskUnits="userSpaceOnUse" x="17" y="11" width="7" height="14">
<path fill-rule="evenodd" clip-rule="evenodd" d="M17.1016 11.8386L19.9561 11.336V14.3065H22.7807V16.6821H19.9561V20.2248C19.9561 20.8285 20.0605 21.3074 20.2738 21.6617C20.4849 22.0216 20.9082 22.1997 21.5438 22.1997C21.8547 22.1997 22.1667 22.1718 22.4961 22.1127C22.8161 22.0526 23.1147 21.9754 23.3832 21.8745L23.7869 24.0995C23.4416 24.2382 23.0595 24.3585 22.6384 24.4604C22.2161 24.5613 21.6975 24.6138 21.0848 24.6138C20.3057 24.6138 19.6622 24.5076 19.1505 24.2971C18.6411 24.0866 18.2314 23.7912 17.9263 23.4144C17.6211 23.0406 17.4066 22.5821 17.2862 22.0451C17.1633 21.5092 17.1016 20.9175 17.1016 20.2645V11.8386Z" fill="white"/>
</mask>
<g mask="url(#mask2_9411_137)">
<path d="M-137.685 52.7418L264.486 52.7418L264.486 -479.742H-137.685L-137.685 52.7418Z" fill="white"/>
</g>
<mask id="mask3_9411_137" style="mask-type:luminance" maskUnits="userSpaceOnUse" x="17" y="11" width="7" height="14">
<path fill-rule="evenodd" clip-rule="evenodd" d="M17.1016 11.8386L19.9561 11.336V14.3065H22.7807V16.6821H19.9561V20.2248C19.9561 20.8285 20.0605 21.3074 20.2738 21.6617C20.4849 22.0216 20.9082 22.1997 21.5438 22.1997C21.8547 22.1997 22.1667 22.1718 22.4961 22.1127C22.8161 22.0526 23.1147 21.9754 23.3832 21.8745L23.7869 24.0995C23.4416 24.2382 23.0595 24.3585 22.6384 24.4604C22.2161 24.5613 21.6975 24.6138 21.0848 24.6138C20.3057 24.6138 19.6622 24.5076 19.1505 24.2971C18.6411 24.0866 18.2314 23.7912 17.9263 23.4144C17.6211 23.0406 17.4066 22.5821 17.2862 22.0451C17.1633 21.5092 17.1016 20.9175 17.1016 20.2645V11.8386Z" fill="white"/>
</mask>
<g mask="url(#mask3_9411_137)">
<path d="M12.3136 29.0886H28.5745V6.86129H12.3136L12.3136 29.0886Z" fill="white"/>
</g>
<path d="M46.3791 22.3879C46.9012 22.3879 47.2706 22.334 47.4899 22.2331C47.7077 22.1312 47.8132 21.9314 47.8132 21.6394C47.8132 21.4084 47.6756 21.2077 47.3933 21.0369C47.1111 20.863 46.6865 20.6697 46.1107 20.4494C45.6643 20.283 45.2582 20.1113 44.8922 19.934C44.5308 19.7537 44.221 19.5432 43.9652 19.2929C43.7103 19.0438 43.513 18.7451 43.3707 18.3973C43.2285 18.0557 43.161 17.6423 43.161 17.1547C43.161 16.2106 43.513 15.4621 44.2141 14.9133C44.9162 14.3668 45.8778 14.0876 47.1054 14.0876C47.7192 14.0876 48.3066 14.1423 48.8688 14.253C49.4299 14.3603 49.8786 14.4828 50.2077 14.6062L49.7109 16.8291C49.3783 16.7143 49.0169 16.6134 48.6279 16.5254C48.2389 16.4353 47.8007 16.3879 47.3164 16.3879C46.4227 16.3879 45.9752 16.6392 45.9752 17.1364C45.9752 17.2512 45.9947 17.3534 46.0337 17.4424C46.0727 17.5327 46.1486 17.6186 46.261 17.7012C46.3791 17.783 46.5329 17.8751 46.7324 17.9698C46.9308 18.0696 47.1833 18.1726 47.4899 18.2898C48.1127 18.5217 48.6301 18.7472 49.0387 18.975C49.4482 19.2026 49.7695 19.4422 50.007 19.7084C50.2433 19.9684 50.4109 20.2563 50.5049 20.5761C50.5991 20.8952 50.6483 21.2634 50.6483 21.6834C50.6483 22.6789 50.2742 23.4316 49.5297 23.9407C48.7815 24.4476 47.7237 24.7031 46.3572 24.7031C45.4646 24.7031 44.7212 24.6291 44.128 24.4734C43.5326 24.322 43.1218 24.1911 42.8924 24.09L43.3707 21.7725C43.8539 21.9637 44.3564 22.1118 44.8636 22.2237C45.3775 22.3332 45.8778 22.3879 46.3791 22.3879" fill="white"/>
<mask id="mask4_9411_137" style="mask-type:luminance" maskUnits="userSpaceOnUse" x="42" y="14" width="9" height="11">
<path fill-rule="evenodd" clip-rule="evenodd" d="M44.214 14.9135C44.9162 14.3668 45.8777 14.0876 47.1052 14.0876C47.7193 14.0876 48.3067 14.1423 48.8689 14.253C49.4298 14.3603 49.8784 14.4827 50.2077 14.6062L49.711 16.8291C49.3781 16.7143 49.0169 16.6134 48.6278 16.5254C48.239 16.4351 47.8006 16.3881 47.3165 16.3881C46.4226 16.3881 45.9752 16.639 45.9752 17.1364C45.9752 17.2512 45.9946 17.3534 46.0336 17.4424C46.0727 17.5327 46.1486 17.6186 46.2611 17.7012C46.3789 17.783 46.533 17.8751 46.7325 17.9698C46.9309 18.0695 47.1832 18.1728 47.4897 18.2898C48.1127 18.5217 48.6302 18.7472 49.0386 18.975C49.4482 19.2026 49.7695 19.4421 50.0071 19.7084C50.2433 19.9684 50.4108 20.2561 50.505 20.5761C50.5991 20.8952 50.6482 21.2634 50.6482 21.6834C50.6482 22.6789 50.2741 23.4318 49.5297 23.9407C48.7816 24.4476 47.7237 24.7031 46.3573 24.7031C45.4646 24.7031 44.7212 24.6291 44.128 24.4734C43.5324 24.322 43.1218 24.1911 42.8923 24.09L43.3708 21.7725C43.8539 21.9638 44.3563 22.1118 44.8635 22.2237C45.3774 22.333 45.8777 22.3879 46.3789 22.3879C46.901 22.3879 47.2706 22.3342 47.4897 22.2331C47.7077 22.1312 47.8133 21.9314 47.8133 21.6394C47.8133 21.4084 47.6756 21.2077 47.3933 21.0369C47.111 20.863 46.6864 20.6697 46.1106 20.4494C45.6642 20.283 45.2582 20.1113 44.892 19.934C44.5308 19.7537 44.2209 19.5432 43.9653 19.2929C43.7103 19.0437 43.5131 18.7451 43.3708 18.3973C43.2285 18.0555 43.1608 17.6423 43.1608 17.1547C43.1608 16.2108 43.5131 15.4623 44.214 14.9135Z" fill="white"/>
</mask>
<g mask="url(#mask4_9411_137)">
<path d="M-137.685 52.7418L264.486 52.7418L264.486 -479.742H-137.685L-137.685 52.7418Z" fill="white"/>
</g>
<mask id="mask5_9411_137" style="mask-type:luminance" maskUnits="userSpaceOnUse" x="42" y="14" width="9" height="11">
<path fill-rule="evenodd" clip-rule="evenodd" d="M44.214 14.9135C44.9162 14.3668 45.8777 14.0876 47.1052 14.0876C47.7193 14.0876 48.3067 14.1423 48.8689 14.253C49.4298 14.3603 49.8784 14.4827 50.2077 14.6062L49.711 16.8291C49.3781 16.7143 49.0169 16.6134 48.6278 16.5254C48.239 16.4351 47.8006 16.3881 47.3165 16.3881C46.4226 16.3881 45.9752 16.639 45.9752 17.1364C45.9752 17.2512 45.9946 17.3534 46.0336 17.4424C46.0727 17.5327 46.1486 17.6186 46.2611 17.7012C46.3789 17.783 46.533 17.8751 46.7325 17.9698C46.9309 18.0695 47.1832 18.1728 47.4897 18.2898C48.1127 18.5217 48.6302 18.7472 49.0386 18.975C49.4482 19.2026 49.7695 19.4421 50.0071 19.7084C50.2433 19.9684 50.4108 20.2561 50.505 20.5761C50.5991 20.8952 50.6482 21.2634 50.6482 21.6834C50.6482 22.6789 50.2741 23.4318 49.5297 23.9407C48.7816 24.4476 47.7237 24.7031 46.3573 24.7031C45.4646 24.7031 44.7212 24.6291 44.128 24.4734C43.5324 24.322 43.1218 24.1911 42.8923 24.09L43.3708 21.7725C43.8539 21.9638 44.3563 22.1118 44.8635 22.2237C45.3774 22.333 45.8777 22.3879 46.3789 22.3879C46.901 22.3879 47.2706 22.3342 47.4897 22.2331C47.7077 22.1312 47.8133 21.9314 47.8133 21.6394C47.8133 21.4084 47.6756 21.2077 47.3933 21.0369C47.111 20.863 46.6864 20.6697 46.1106 20.4494C45.6642 20.283 45.2582 20.1113 44.892 19.934C44.5308 19.7537 44.2209 19.5432 43.9653 19.2929C43.7103 19.0437 43.5131 18.7451 43.3708 18.3973C43.2285 18.0555 43.1608 17.6423 43.1608 17.1547C43.1608 16.2108 43.5131 15.4623 44.214 14.9135Z" fill="white"/>
</mask>
<g mask="url(#mask5_9411_137)">
<path d="M38.1047 29.1779H55.4362V9.61291H38.1047V29.1779Z" fill="white"/>
</g>
<path d="M59.4462 18.6489C59.1904 19.6198 58.9208 20.5863 58.6329 21.5421C58.3459 22.5011 58.0406 23.4655 57.7253 24.4363H55.503C55.2723 23.8993 55.0211 23.2615 54.7526 22.5215C54.4816 21.7784 54.2053 20.9718 53.915 20.0945C53.628 19.2202 53.3345 18.2946 53.0337 17.3151C52.732 16.3401 52.4394 15.3542 52.1595 14.3565H55.1679C55.2676 14.815 55.3812 15.3188 55.5039 15.861C55.6257 16.4044 55.7541 16.964 55.8884 17.5396C56.0226 18.1132 56.166 18.6897 56.3128 19.2718C56.4608 19.8538 56.6124 20.4112 56.7659 20.9472C56.9324 20.3856 57.0954 19.812 57.2548 19.2245C57.412 18.6362 57.567 18.0583 57.7149 17.4903C57.8607 16.9232 58.0041 16.3723 58.1348 15.8418C58.2679 15.3122 58.3862 14.815 58.4906 14.3565H60.5569C60.6624 14.815 60.7735 15.3122 60.9031 15.8418C61.0294 16.3723 61.1638 16.9232 61.3061 17.4903C61.4437 18.0583 61.594 18.6362 61.7443 19.2245C61.8991 19.812 62.0576 20.3856 62.2217 20.9472C62.3764 20.4112 62.5303 19.8538 62.685 19.2718C62.84 18.6897 62.9856 18.1132 63.1188 17.5396C63.2519 16.964 63.3804 16.4044 63.5044 15.861C63.6271 15.3188 63.7384 14.815 63.8404 14.3565H66.8098C66.5277 15.3542 66.2373 16.3401 65.9356 17.3151C65.6315 18.2946 65.3411 19.2202 65.051 20.0945C64.7651 20.9718 64.483 21.7784 64.2087 22.5215C63.9323 23.2615 63.6775 23.8993 63.4505 24.4363H61.2281C60.9067 23.4655 60.5947 22.5011 60.2872 21.5421C59.9808 20.5863 59.7032 19.6198 59.4462 18.6489" fill="white"/>
<mask id="mask6_9411_137" style="mask-type:luminance" maskUnits="userSpaceOnUse" x="52" y="14" width="15" height="11">
<path fill-rule="evenodd" clip-rule="evenodd" d="M63.8404 14.3567H66.8098C66.5277 15.3544 66.2373 16.3403 65.9354 17.3152C65.6315 18.2948 65.3411 19.2206 65.0508 20.0948C64.7651 20.9721 64.483 21.7786 64.2085 22.5217C63.9322 23.2617 63.6775 23.8994 63.4503 24.4365H61.228C60.9067 23.4658 60.5947 22.5012 60.2872 21.5421C59.9808 20.5866 59.7032 19.62 59.4462 18.6491C59.1902 19.62 58.9206 20.5866 58.6329 21.5421C58.3459 22.5012 58.0406 23.4658 57.7251 24.4365H55.5028C55.2721 23.8994 55.0209 23.2617 54.7524 22.5217C54.4816 21.7786 54.2051 20.9721 53.915 20.0948C53.628 19.2206 53.3343 18.2948 53.0337 17.3152C52.732 16.3403 52.4394 15.3544 52.1595 14.3567H55.1677C55.2676 14.8152 55.3812 15.3189 55.5039 15.8612C55.6257 16.4046 55.7539 16.9642 55.8884 17.5397C56.0225 18.1132 56.166 18.6899 56.3128 19.272C56.4608 19.8541 56.6124 20.4114 56.7659 20.9475C56.9322 20.3858 57.0952 19.8121 57.2546 19.2248C57.4118 18.6364 57.567 18.0585 57.7149 17.4905C57.8605 16.9233 58.0039 16.3724 58.1348 15.8421C58.2679 15.3124 58.3862 14.8152 58.4904 14.3567H60.5569C60.6622 14.8152 60.7735 15.3124 60.9031 15.8421C61.0294 16.3724 61.1638 16.9233 61.3059 17.4905C61.4437 18.0585 61.5938 18.6364 61.7443 19.2248C61.8991 19.8121 62.0576 20.3858 62.2215 20.9475C62.3764 20.4114 62.5301 19.8541 62.685 19.272C62.84 18.6899 62.9856 18.1132 63.1188 17.5397C63.2519 16.9642 63.3804 16.4046 63.5042 15.8612C63.6271 15.3189 63.7384 14.8152 63.8404 14.3567Z" fill="white"/>
</mask>
<g mask="url(#mask6_9411_137)">
<path d="M-137.685 52.7418L264.486 52.7418L264.486 -479.742H-137.685L-137.685 52.7418Z" fill="white"/>
</g>
<mask id="mask7_9411_137" style="mask-type:luminance" maskUnits="userSpaceOnUse" x="52" y="14" width="15" height="11">
<path fill-rule="evenodd" clip-rule="evenodd" d="M63.8404 14.3567H66.8098C66.5277 15.3544 66.2373 16.3403 65.9354 17.3152C65.6315 18.2948 65.3411 19.2206 65.0508 20.0948C64.7651 20.9721 64.483 21.7786 64.2085 22.5217C63.9322 23.2617 63.6775 23.8994 63.4503 24.4365H61.228C60.9067 23.4658 60.5947 22.5012 60.2872 21.5421C59.9808 20.5866 59.7032 19.62 59.4462 18.6491C59.1902 19.62 58.9206 20.5866 58.6329 21.5421C58.3459 22.5012 58.0406 23.4658 57.7251 24.4365H55.5028C55.2721 23.8994 55.0209 23.2617 54.7524 22.5217C54.4816 21.7786 54.2051 20.9721 53.915 20.0948C53.628 19.2206 53.3343 18.2948 53.0337 17.3152C52.732 16.3403 52.4394 15.3544 52.1595 14.3567H55.1677C55.2676 14.8152 55.3812 15.3189 55.5039 15.8612C55.6257 16.4046 55.7539 16.9642 55.8884 17.5397C56.0225 18.1132 56.166 18.6899 56.3128 19.272C56.4608 19.8541 56.6124 20.4114 56.7659 20.9475C56.9322 20.3858 57.0952 19.8121 57.2546 19.2248C57.4118 18.6364 57.567 18.0585 57.7149 17.4905C57.8605 16.9233 58.0039 16.3724 58.1348 15.8421C58.2679 15.3124 58.3862 14.8152 58.4904 14.3567H60.5569C60.6622 14.8152 60.7735 15.3124 60.9031 15.8421C61.0294 16.3724 61.1638 16.9233 61.3059 17.4905C61.4437 18.0585 61.5938 18.6364 61.7443 19.2248C61.8991 19.8121 62.0576 20.3858 62.2215 20.9475C62.3764 20.4114 62.5301 19.8541 62.685 19.272C62.84 18.6899 62.9856 18.1132 63.1188 17.5397C63.2519 16.9642 63.3804 16.4046 63.5042 15.8612C63.6271 15.3189 63.7384 14.8152 63.8404 14.3567Z" fill="white"/>
</mask>
<g mask="url(#mask7_9411_137)">
<path d="M47.3718 28.9113H71.5976V9.88211H47.3718V28.9113Z" fill="white"/>
</g>
<path d="M68.8275 24.4326H71.6775V14.3549H68.8275V24.4326Z" fill="white"/>
<mask id="mask8_9411_137" style="mask-type:luminance" maskUnits="userSpaceOnUse" x="68" y="14" width="4" height="11">
<path fill-rule="evenodd" clip-rule="evenodd" d="M68.8275 24.4327V14.355H71.6777V24.4327H68.8275Z" fill="white"/>
</mask>
<g mask="url(#mask8_9411_137)">
<path d="M-137.685 52.7418L264.486 52.7418L264.486 -479.742H-137.685L-137.685 52.7418Z" fill="white"/>
</g>
<mask id="mask9_9411_137" style="mask-type:luminance" maskUnits="userSpaceOnUse" x="68" y="14" width="4" height="11">
<path fill-rule="evenodd" clip-rule="evenodd" d="M68.8275 24.4327V14.355H71.6777V24.4327H68.8275Z" fill="white"/>
</mask>
<g mask="url(#mask9_9411_137)">
<path d="M64.0396 28.9072H76.4651V9.88011H64.0396V28.9072Z" fill="white"/>
</g>
<path d="M73.9447 11.8415L76.7969 11.3358V14.3598H79.6195V16.731H76.7969V20.2772C76.7969 20.8774 76.9025 21.3609 77.1124 21.7141C77.3224 22.0717 77.7479 22.2511 78.3849 22.2511C78.6935 22.2511 79.0101 22.2253 79.3337 22.1662C79.6605 22.1082 79.9567 22.0256 80.2263 21.9257L80.6268 24.1488C80.2813 24.2903 79.897 24.4107 79.4784 24.5137C79.0547 24.6146 78.5421 24.6662 77.9269 24.6662C77.1469 24.6662 76.5032 24.5611 75.9927 24.3483C75.481 24.1411 75.0724 23.848 74.7674 23.4677C74.4621 23.0941 74.2488 22.6333 74.1261 22.0996C74.0021 21.5616 73.9447 20.9667 73.9447 20.3168V11.8415Z" fill="white"/>
<mask id="mask10_9411_137" style="mask-type:luminance" maskUnits="userSpaceOnUse" x="73" y="11" width="8" height="14">
<path fill-rule="evenodd" clip-rule="evenodd" d="M73.9447 11.8415L76.7967 11.3358V14.3598H79.6193V16.731H76.7967V20.2772C76.7967 20.8774 76.9025 21.3607 77.1124 21.7141C77.3224 22.0717 77.7479 22.2509 78.3847 22.2509C78.6933 22.2509 79.0101 22.2253 79.3337 22.1662C79.6606 22.108 79.9567 22.0256 80.2261 21.9257L80.6267 24.1486C80.2813 24.2903 79.8968 24.4107 79.4784 24.5137C79.0547 24.6146 78.5421 24.6662 77.9269 24.6662C77.1469 24.6662 76.5031 24.5611 75.9927 24.3483C75.4808 24.1409 75.0724 23.848 74.7674 23.4679C74.4621 23.0941 74.2488 22.6335 74.1259 22.0996C74.0021 21.5616 73.9447 20.9665 73.9447 20.317V11.8415Z" fill="white"/>
</mask>
<g mask="url(#mask10_9411_137)">
<path d="M-137.685 52.7418L264.486 52.7418L264.486 -479.742H-137.685L-137.685 52.7418Z" fill="white"/>
</g>
<mask id="mask11_9411_137" style="mask-type:luminance" maskUnits="userSpaceOnUse" x="73" y="11" width="8" height="14">
<path fill-rule="evenodd" clip-rule="evenodd" d="M73.9447 11.8415L76.7967 11.3358V14.3598H79.6193V16.731H76.7967V20.2772C76.7967 20.8774 76.9025 21.3607 77.1124 21.7141C77.3224 22.0717 77.7479 22.2509 78.3847 22.2509C78.6933 22.2509 79.0101 22.2253 79.3337 22.1662C79.6606 22.108 79.9567 22.0256 80.2261 21.9257L80.6267 24.1486C80.2813 24.2903 79.8968 24.4107 79.4784 24.5137C79.0547 24.6146 78.5421 24.6662 77.9269 24.6662C77.1469 24.6662 76.5031 24.5611 75.9927 24.3483C75.4808 24.1409 75.0724 23.848 74.7674 23.4679C74.4621 23.0941 74.2488 22.6335 74.1259 22.0996C74.0021 21.5616 73.9447 20.9665 73.9447 20.317V11.8415Z" fill="white"/>
</mask>
<g mask="url(#mask11_9411_137)">
<path d="M69.1568 29.141H85.4145V6.86106H69.1568V29.141Z" fill="white"/>
</g>
<path d="M81.6347 19.3989C81.6347 18.6695 81.7531 17.9824 81.9894 17.3381C82.2257 16.6915 82.5665 16.131 83.0129 15.6509C83.4603 15.1709 84.0018 14.7927 84.6419 14.5104C85.2787 14.2323 86.0062 14.0883 86.8231 14.0883C87.3588 14.0883 87.8511 14.1389 88.2985 14.2333C88.7462 14.3311 89.1821 14.4676 89.6008 14.6446L89.0089 16.9247C88.7393 16.8236 88.4465 16.7356 88.1254 16.6561C87.8064 16.5808 87.4472 16.5413 87.0526 16.5413C86.2105 16.5413 85.5805 16.8043 85.1685 17.3283C84.7497 17.8536 84.5456 18.542 84.5456 19.3989C84.5456 20.3041 84.7395 21.0075 85.132 21.5059C85.5174 22.0031 86.199 22.2534 87.1684 22.2534C87.5138 22.2534 87.8821 22.2199 88.2802 22.1566C88.6749 22.0922 89.0386 21.9913 89.3737 21.8496L89.7731 24.1885C89.44 24.3292 89.0272 24.4473 88.5293 24.5514C88.029 24.6526 87.4815 24.7051 86.8828 24.7051C85.9637 24.7051 85.1699 24.5655 84.5077 24.2915C83.8448 24.0177 83.2973 23.6439 82.8705 23.1714C82.4403 22.6979 82.1306 22.1396 81.9322 21.4951C81.7336 20.8497 81.6347 20.1497 81.6347 19.3989" fill="white"/>
<mask id="mask12_9411_137" style="mask-type:luminance" maskUnits="userSpaceOnUse" x="81" y="14" width="9" height="11">
<path fill-rule="evenodd" clip-rule="evenodd" d="M84.6419 14.5104C85.2787 14.2323 86.0062 14.0883 86.8231 14.0883C87.3588 14.0883 87.8511 14.1387 88.2985 14.2331C88.746 14.3311 89.1821 14.4674 89.6008 14.6446L89.0089 16.9245C88.7391 16.8236 88.4465 16.7356 88.1252 16.6561C87.8062 16.5807 87.4472 16.5411 87.0525 16.5411C86.2105 16.5411 85.5805 16.8043 85.1685 17.3283C84.7497 17.8534 84.5456 18.5418 84.5456 19.3989C84.5456 20.3041 84.7397 21.0075 85.132 21.5059C85.5174 22.0031 86.1988 22.2534 87.1683 22.2534C87.5138 22.2534 87.8821 22.2199 88.2802 22.1566C88.6749 22.0922 89.0386 21.9913 89.3735 21.8494L89.7729 24.1885C89.4402 24.3292 89.0272 24.4472 88.5291 24.5514C88.029 24.6525 87.4817 24.7051 86.8828 24.7051C85.9635 24.7051 85.1698 24.5653 84.5077 24.2913C83.8448 24.0176 83.2973 23.6439 82.8703 23.1716C82.4405 22.6979 82.1306 22.1396 81.9322 21.4951C81.7336 20.8497 81.6347 20.1495 81.6347 19.3989C81.6347 18.6695 81.7531 17.9824 81.9894 17.3381C82.2257 16.6915 82.5665 16.1309 83.0128 15.6507C83.4603 15.1708 84.0018 14.7927 84.6419 14.5104Z" fill="white"/>
</mask>
<g mask="url(#mask12_9411_137)">
<path d="M-137.685 52.7418L264.486 52.7418L264.486 -479.742H-137.685L-137.685 52.7418Z" fill="white"/>
</g>
<mask id="mask13_9411_137" style="mask-type:luminance" maskUnits="userSpaceOnUse" x="81" y="14" width="9" height="11">
<path fill-rule="evenodd" clip-rule="evenodd" d="M84.6419 14.5104C85.2787 14.2323 86.0062 14.0883 86.8231 14.0883C87.3588 14.0883 87.8511 14.1387 88.2985 14.2331C88.746 14.3311 89.1821 14.4674 89.6008 14.6446L89.0089 16.9245C88.7391 16.8236 88.4465 16.7356 88.1252 16.6561C87.8062 16.5807 87.4472 16.5411 87.0525 16.5411C86.2105 16.5411 85.5805 16.8043 85.1685 17.3283C84.7497 17.8534 84.5456 18.5418 84.5456 19.3989C84.5456 20.3041 84.7397 21.0075 85.132 21.5059C85.5174 22.0031 86.1988 22.2534 87.1683 22.2534C87.5138 22.2534 87.8821 22.2199 88.2802 22.1566C88.6749 22.0922 89.0386 21.9913 89.3735 21.8494L89.7729 24.1885C89.4402 24.3292 89.0272 24.4472 88.5291 24.5514C88.029 24.6525 87.4817 24.7051 86.8828 24.7051C85.9635 24.7051 85.1698 24.5653 84.5077 24.2913C83.8448 24.0176 83.2973 23.6439 82.8703 23.1716C82.4405 22.6979 82.1306 22.1396 81.9322 21.4951C81.7336 20.8497 81.6347 20.1495 81.6347 19.3989C81.6347 18.6695 81.7531 17.9824 81.9894 17.3381C82.2257 16.6915 82.5665 16.1309 83.0128 15.6507C83.4603 15.1708 84.0018 14.7927 84.6419 14.5104Z" fill="white"/>
</mask>
<g mask="url(#mask13_9411_137)">
<path d="M76.847 29.1799H94.5604V9.61364H76.847V29.1799Z" fill="white"/>
</g>
<path d="M91.617 24.4327V11.8377L94.4703 11.3363V14.397C94.6607 14.3335 94.9052 14.2723 95.2082 14.2145C95.5064 14.1575 95.799 14.1273 96.079 14.1273C96.8947 14.1273 97.5727 14.2401 98.1164 14.4625C98.6581 14.6859 99.0952 15.0027 99.4187 15.4118C99.7469 15.8189 99.974 16.3063 100.111 16.8659C100.243 17.4295 100.309 18.0569 100.309 18.7464V24.4327H97.4567V19.0888C97.4567 18.1695 97.3386 17.5188 97.1035 17.1333C96.8671 16.754 96.4288 16.562 95.7921 16.562C95.5328 16.562 95.2962 16.5846 95.0715 16.6275C94.8489 16.6726 94.6482 16.722 94.4703 16.7725V24.4327H91.617Z" fill="white"/>
<mask id="mask14_9411_137" style="mask-type:luminance" maskUnits="userSpaceOnUse" x="91" y="11" width="10" height="14">
<path fill-rule="evenodd" clip-rule="evenodd" d="M91.617 11.8377L94.4702 11.3363V14.3971C94.6607 14.3335 94.9052 14.2723 95.2082 14.2145C95.5064 14.1575 95.799 14.1275 96.079 14.1275C96.8947 14.1275 97.5729 14.2403 98.1166 14.4625C98.6581 14.6861 99.0954 15.0027 99.4187 15.4119C99.7467 15.8189 99.9742 16.3063 100.111 16.8661C100.243 17.4297 100.309 18.0569 100.309 18.7465V24.4327H97.4569V19.0888C97.4569 18.1697 97.3385 17.5188 97.1035 17.1333C96.8671 16.7542 96.4288 16.562 95.7921 16.562C95.5328 16.562 95.2962 16.5846 95.0715 16.6277C94.8489 16.6727 94.6482 16.722 94.4702 16.7725V24.4327H91.617V11.8377Z" fill="white"/>
</mask>
<g mask="url(#mask14_9411_137)">
<path d="M-137.685 52.7418L264.486 52.7418L264.486 -479.742H-137.685L-137.685 52.7418Z" fill="white"/>
</g>
<mask id="mask15_9411_137" style="mask-type:luminance" maskUnits="userSpaceOnUse" x="91" y="11" width="10" height="14">
<path fill-rule="evenodd" clip-rule="evenodd" d="M91.617 11.8377L94.4702 11.3363V14.3971C94.6607 14.3335 94.9052 14.2723 95.2082 14.2145C95.5064 14.1575 95.799 14.1275 96.079 14.1275C96.8947 14.1275 97.5729 14.2403 98.1166 14.4625C98.6581 14.6861 99.0954 15.0027 99.4187 15.4119C99.7467 15.8189 99.9742 16.3063 100.111 16.8661C100.243 17.4297 100.309 18.0569 100.309 18.7465V24.4327H97.4569V19.0888C97.4569 18.1697 97.3385 17.5188 97.1035 17.1333C96.8671 16.7542 96.4288 16.562 95.7921 16.562C95.5328 16.562 95.2962 16.5846 95.0715 16.6277C94.8489 16.6727 94.6482 16.722 94.4702 16.7725V24.4327H91.617V11.8377Z" fill="white"/>
</mask>
<g mask="url(#mask15_9411_137)">
<path d="M86.8293 28.9075H105.097V6.86153H86.8293V28.9075Z" fill="white"/>
</g>
<path d="M5.59055 24.436L5.59055 15.3034C5.59055 15.3034 7.02469 14.1575 10.1615 14.1575C13.016 14.1575 14.5835 15.5849 14.5835 18.726V24.436H11.7323V18.726C11.7323 16.7253 10.7317 16.5868 9.87694 16.5868C9.02217 16.5868 8.4497 17.012 8.4497 17.012V24.436H5.59055Z" fill="white"/>
<mask id="mask16_9411_137" style="mask-type:luminance" maskUnits="userSpaceOnUse" x="5" y="14" width="10" height="11">
<path fill-rule="evenodd" clip-rule="evenodd" d="M5.59055 15.3034C5.59055 15.3034 7.02469 14.1575 10.1615 14.1575C13.016 14.1575 14.5833 15.5847 14.5833 18.7262V24.436H11.7323V18.7262C11.7323 16.7252 10.7317 16.5868 9.87694 16.5868C9.02217 16.5868 8.4497 17.0122 8.4497 17.0122V24.436H5.59055L5.59055 15.3034Z" fill="white"/>
</mask>
<g mask="url(#mask16_9411_137)">
<path d="M-137.685 52.7416L264.486 52.7416L264.486 -479.742H-137.685L-137.685 52.7416Z" fill="white"/>
</g>
<mask id="mask17_9411_137" style="mask-type:luminance" maskUnits="userSpaceOnUse" x="5" y="14" width="10" height="11">
<path fill-rule="evenodd" clip-rule="evenodd" d="M5.59055 15.3034C5.59055 15.3034 7.02469 14.1575 10.1615 14.1575C13.016 14.1575 14.5833 15.5847 14.5833 18.7262V24.436H11.7323V18.7262C11.7323 16.7252 10.7317 16.5868 9.87694 16.5868C9.02217 16.5868 8.4497 17.0122 8.4497 17.0122V24.436H5.59055L5.59055 15.3034Z" fill="white"/>
</mask>
<g mask="url(#mask17_9411_137)">
<path d="M0.80307 28.9108H19.3711V9.68303H0.80307L0.80307 28.9108Z" fill="white"/>
</g>
<path d="M0.218689 24.436L0.218689 11.8389L3.0732 11.3362L3.0732 24.436H0.218689Z" fill="white"/>
<mask id="mask18_9411_137" style="mask-type:luminance" maskUnits="userSpaceOnUse" x="0" y="11" width="4" height="14">
<path fill-rule="evenodd" clip-rule="evenodd" d="M0.218689 11.839L3.0732 11.3362L3.0732 24.436H0.218689L0.218689 11.839Z" fill="white"/>
</mask>
<g mask="url(#mask18_9411_137)">
<path d="M-137.685 52.7416L264.486 52.7416L264.486 -479.742H-137.685L-137.685 52.7416Z" fill="white"/>
</g>
<mask id="mask19_9411_137" style="mask-type:luminance" maskUnits="userSpaceOnUse" x="0" y="11" width="4" height="14">
<path fill-rule="evenodd" clip-rule="evenodd" d="M0.218689 11.839L3.0732 11.3362L3.0732 24.436H0.218689L0.218689 11.839Z" fill="white"/>
</mask>
<g mask="url(#mask19_9411_137)">
<path d="M-4.56903 28.9108H7.86109L7.86109 6.86174H-4.56903L-4.56903 28.9108Z" fill="white"/>
</g>
<path fill-rule="evenodd" clip-rule="evenodd" d="M27.5047 20.1205H33.9253C34.2121 18.4043 33.9253 14.128 29.6436 14.128C26.79 14.128 24.7936 16.1233 24.7936 19.2657C24.7936 23.2615 27.3614 24.6868 30.2171 24.6868C32.2135 24.6868 33.6396 24.1207 33.6396 24.1207L33.354 21.8344C33.354 21.8344 31.9267 22.2608 30.4993 22.2608C27.6481 22.2608 27.5047 20.1205 27.5047 20.1205ZM27.5048 18.1206C27.5048 18.1206 27.6482 16.1233 29.5036 16.1233C31.3577 16.1233 31.4975 18.1206 31.4975 18.1206H27.5048Z" fill="white"/>
<mask id="mask20_9411_137" style="mask-type:luminance" maskUnits="userSpaceOnUse" x="24" y="14" width="11" height="11">
<path fill-rule="evenodd" clip-rule="evenodd" d="M24.7938 19.2655C24.7938 16.1232 26.7902 14.1279 29.6435 14.1279C33.9253 14.1279 34.2121 18.4043 33.9253 20.1204H27.5049C27.5049 20.1204 27.6483 22.2607 30.4992 22.2607C31.9267 22.2607 33.3539 21.8342 33.3539 21.8342L33.6396 24.1205C33.6396 24.1205 32.2135 24.6868 30.2171 24.6868C27.3615 24.6868 24.7938 23.2615 24.7938 19.2655ZM29.5035 16.1231C27.6483 16.1231 27.5049 18.1206 27.5049 18.1206H31.4976C31.4976 18.1206 31.3576 16.1231 29.5035 16.1231Z" fill="white"/>
</mask>
<g mask="url(#mask20_9411_137)">
<path d="M-137.685 52.7418L264.486 52.7418L264.486 -479.742H-137.685L-137.685 52.7418Z" fill="white"/>
</g>
<mask id="mask21_9411_137" style="mask-type:luminance" maskUnits="userSpaceOnUse" x="24" y="14" width="11" height="11">
<path fill-rule="evenodd" clip-rule="evenodd" d="M24.7938 19.2655C24.7938 16.1232 26.7902 14.1279 29.6435 14.1279C33.9253 14.1279 34.2121 18.4043 33.9253 20.1204H27.5049C27.5049 20.1204 27.6483 22.2607 30.4992 22.2607C31.9267 22.2607 33.3539 21.8342 33.3539 21.8342L33.6396 24.1205C33.6396 24.1205 32.2135 24.6868 30.2171 24.6868C27.3615 24.6868 24.7938 23.2615 24.7938 19.2655ZM29.5035 16.1231C27.6483 16.1231 27.5049 18.1206 27.5049 18.1206H31.4976C31.4976 18.1206 31.3576 16.1231 29.5035 16.1231Z" fill="white"/>
</mask>
<g mask="url(#mask21_9411_137)">
<path d="M20.006 29.1613H38.7929V9.65315H20.006V29.1613Z" fill="white"/>
</g>
<mask id="mask22_9411_137" style="mask-type:luminance" maskUnits="userSpaceOnUse" x="104" y="9" width="19" height="23">
<path fill-rule="evenodd" clip-rule="evenodd" d="M104.09 11.3389C104.09 10.73 112.297 9.41592 117.8 9.41592C120.187 9.41592 122.066 9.66305 122.546 10.3218C125.024 13.3804 107.578 32.5691 106.124 31.987C104.959 31.696 115.426 19.4823 113.681 14.537C112.81 11.922 104.09 12.2129 104.09 11.3389Z" fill="white"/>
</mask>
<g mask="url(#mask22_9411_137)">
<path d="M99.3024 36.4748H127.574V4.94136H99.3024V36.4748Z" fill="#EE312A"/>
</g>
<mask id="mask23_9411_137" style="mask-type:luminance" maskUnits="userSpaceOnUse" x="118" y="0" width="9" height="8">
<path fill-rule="evenodd" clip-rule="evenodd" d="M118.913 3.77907C118.913 1.69037 120.605 6.19001e-05 122.691 6.19001e-05C124.779 6.19001e-05 126.469 1.69037 126.469 3.77907C126.469 5.86883 124.779 7.55914 122.691 7.55914C120.605 7.55914 118.913 5.86883 118.913 3.77907Z" fill="white"/>
</mask>
<g mask="url(#mask23_9411_137)">
<path d="M114.125 12.0339L131.257 12.0339V-4.47476H114.125V12.0339Z" fill="#EE312A"/>
</g>
</svg>
