<svg width="167" height="49" viewBox="0 0 167 49" fill="none" xmlns="http://www.w3.org/2000/svg">
<g clip-path="url(#clip0_2549_79939)">
<path fill-rule="evenodd" clip-rule="evenodd" d="M60.7022 33.0286C61.4234 33.0286 61.9343 32.9518 62.2381 32.8115C62.5386 32.668 62.6855 32.3875 62.6855 31.9768C62.6855 31.6529 62.4952 31.3691 62.1046 31.1287C61.7139 30.885 61.1263 30.6112 60.3316 30.304C59.7139 30.0703 59.153 29.8266 58.6488 29.5795C58.148 29.3257 57.7206 29.0286 57.3667 28.678C57.0161 28.3274 56.7423 27.9067 56.5453 27.4192C56.3483 26.9384 56.2548 26.3575 56.2548 25.673C56.2548 24.3441 56.7423 23.2923 57.7106 22.5211C58.6822 21.7531 60.0111 21.3591 61.7072 21.3591C62.5553 21.3591 63.3667 21.4359 64.1446 21.5929C64.9192 21.7431 65.5403 21.9167 65.9944 22.0903L65.3066 25.2156C64.8458 25.0553 64.3483 24.9117 63.8107 24.7882C63.2732 24.6613 62.6688 24.5945 61.9977 24.5945C60.7623 24.5945 60.1446 24.9484 60.1446 25.6463C60.1446 25.8065 60.1713 25.9501 60.2248 26.077C60.2782 26.2039 60.385 26.3241 60.5386 26.4409C60.7022 26.5544 60.9159 26.6847 61.1897 26.8182C61.4635 26.9585 61.8141 27.1054 62.2381 27.269C63.0995 27.5962 63.8141 27.9134 64.3783 28.2339C64.946 28.5544 65.39 28.8917 65.7172 29.2656C66.0445 29.6296 66.2748 30.0369 66.4051 30.4877C66.5353 30.9351 66.602 31.4559 66.602 32.0436C66.602 33.4426 66.0845 34.501 65.0561 35.2189C64.0211 35.9334 62.5586 36.2907 60.6722 36.2907C59.4368 36.2907 58.4117 36.1872 57.5904 35.9668C56.7657 35.7531 56.1981 35.5695 55.8809 35.4259L56.542 32.1671C57.2097 32.4376 57.9042 32.6446 58.6054 32.8015C59.3166 32.9551 60.0077 33.0319 60.6989 33.0319" fill="white"/>
<path d="M54.9326 25.0352L55.5303 21.8532C55.5303 21.8532 50.9226 20.4542 47.1797 23.0452V35.7731H51.1563V25.4325C52.7456 24.2405 54.9359 25.0352 54.9359 25.0352" fill="white"/>
<path d="M106.861 28.7949C106.861 27.7799 107.025 26.825 107.355 25.9268C107.686 25.0286 108.16 24.244 108.785 23.5795C109.409 22.9118 110.163 22.3842 111.055 21.9902C111.943 21.5996 112.958 21.4026 114.097 21.4026C114.845 21.4026 115.529 21.4694 116.15 21.6029C116.771 21.7365 117.379 21.9268 117.966 22.1772L117.138 25.3525C116.764 25.2089 116.354 25.0854 115.91 24.9785C115.466 24.8717 114.965 24.8183 114.414 24.8183C113.239 24.8183 112.364 25.1822 111.786 25.9134C111.209 26.6447 110.918 27.6029 110.918 28.7949C110.918 30.057 111.189 31.0386 111.733 31.7298C112.277 32.4243 113.222 32.7715 114.574 32.7715C115.055 32.7715 115.569 32.7281 116.123 32.638C116.674 32.5478 117.182 32.4076 117.646 32.2106L118.207 35.466C117.743 35.663 117.165 35.8299 116.471 35.9735C115.776 36.1171 115.012 36.1872 114.177 36.1872C112.895 36.1872 111.793 35.9969 110.868 35.6129C109.943 35.2289 109.182 34.7081 108.584 34.0503C107.987 33.3926 107.552 32.6146 107.275 31.7131C106.998 30.8149 106.861 29.84 106.861 28.7916" fill="white"/>
<path d="M44.8925 29.6594H35.9443C35.9443 29.6594 36.1446 32.6444 40.1212 32.6444C42.1079 32.6444 44.0978 32.0467 44.0978 32.0467L44.4952 35.2287C44.4952 35.2287 42.5052 36.0233 39.7239 36.0233C35.7473 36.0233 32.168 34.0334 32.168 28.4674C32.168 24.0935 34.9526 21.3088 38.9292 21.3088C44.8958 21.3088 45.2932 27.2754 44.8958 29.6594M38.7256 24.0935C36.1413 24.0935 35.9409 26.8781 35.9409 26.8781H41.5102C41.5102 26.8781 41.3132 24.0935 38.7256 24.0935Z" fill="white"/>
<path d="M3.97662 17.3926H0V35.8266H3.97662V17.3926Z" fill="white"/>
<path d="M94.1641 21.76H90.1875V35.8001H94.1641V21.76Z" fill="white"/>
<path d="M6.82504 35.8236L6.81836 23.1058C6.81836 23.1058 8.81502 21.5098 13.189 21.5098C17.1656 21.5098 19.3526 23.4997 19.3526 27.8737V35.8269H15.3759V27.8737C15.3759 25.0891 13.9836 24.8921 12.7916 24.8921C11.5997 24.8921 10.8017 25.4897 10.8017 25.4897V35.8303H6.82504V35.8236Z" fill="white"/>
<path d="M96.7637 18.3806L100.74 17.6794V21.8163H104.677V25.1252H100.74V30.0634C100.74 30.9015 100.887 31.5692 101.181 32.0667C101.475 32.5642 102.066 32.8146 102.957 32.8146C103.385 32.8146 103.825 32.7746 104.28 32.6944C104.734 32.6143 105.148 32.5041 105.522 32.3606L106.083 35.459C105.602 35.656 105.068 35.823 104.48 35.9666C103.892 36.1068 103.171 36.1803 102.316 36.1803C101.231 36.1803 100.333 36.0333 99.6218 35.7395C98.9106 35.4457 98.3396 35.035 97.9123 34.5108C97.4849 33.9866 97.1877 33.3489 97.0174 32.601C96.8471 31.853 96.7637 31.025 96.7637 30.1202V18.384V18.3806Z" fill="white"/>
<path d="M22.0391 18.3806L26.0157 17.6794V21.8163H29.9522V25.1252H26.0157V30.0634C26.0157 30.9015 26.1626 31.5692 26.4564 32.0667C26.7502 32.5642 27.3412 32.8146 28.2327 32.8146C28.6601 32.8146 29.1008 32.7746 29.5549 32.6944C30.009 32.6143 30.423 32.5041 30.797 32.3606L31.3579 35.459C30.8771 35.656 30.3429 35.823 29.7552 35.9666C29.1676 36.1068 28.4464 36.1803 27.5916 36.1803C26.5065 36.1803 25.6083 36.0333 24.8972 35.7395C24.186 35.4457 23.615 35.035 23.1876 34.5108C22.7603 33.9866 22.4631 33.3489 22.2928 32.601C22.1225 31.853 22.0391 31.025 22.0391 30.1202V18.384V18.3806Z" fill="white"/>
<path fill-rule="evenodd" clip-rule="evenodd" d="M120.257 35.8499V18.1337L124.007 17.4292V21.733C124.257 21.6429 124.578 21.5594 124.975 21.4759C125.366 21.3958 125.753 21.3524 126.12 21.3524C127.192 21.3524 128.084 21.5127 128.798 21.8232C129.509 22.137 130.084 22.5845 130.511 23.1587C130.942 23.7297 131.242 24.4175 131.419 25.2055C131.593 26.0001 131.68 26.8816 131.68 27.8499V35.8465H127.93V28.3307C127.93 27.0385 127.773 26.1237 127.466 25.5794C127.155 25.0452 126.578 24.7748 125.743 24.7748C125.402 24.7748 125.092 24.8082 124.795 24.8683C124.501 24.9317 124.237 25.0018 124.003 25.0719V35.8465H120.254L120.257 35.8499Z" fill="white"/>
<path fill-rule="evenodd" clip-rule="evenodd" d="M139.338 45.5797C137.775 45.1623 151.802 27.6498 149.465 20.558C148.299 16.8084 136.613 17.2258 136.613 15.9737C136.613 14.7216 159.218 11.3927 161.344 14.5146C164.667 18.8986 141.288 46.4144 139.338 45.5797Z" fill="#F74B39"/>
<path d="M161.667 10.5576C164.583 10.5576 166.946 8.19419 166.946 5.27879C166.946 2.3634 164.583 0 161.667 0C158.752 0 156.389 2.3634 156.389 5.27879C156.389 8.19419 158.752 10.5576 161.667 10.5576Z" fill="#F74B39"/>
<path fill-rule="evenodd" clip-rule="evenodd" d="M77.8063 27.6164C77.4691 28.9887 77.1118 30.3543 76.7312 31.7032C76.3539 33.0588 75.9499 34.4211 75.5325 35.7934H72.5976C72.2938 35.0354 71.9599 34.1339 71.606 33.0889C71.2487 32.0404 70.8848 30.8985 70.5008 29.6598C70.1235 28.4244 69.7328 27.1156 69.3388 25.7333C68.9415 24.3543 68.5542 22.962 68.1836 21.553H72.1569C72.2871 22.2007 72.4373 22.9119 72.6009 23.6799C72.7612 24.4478 72.9315 25.2391 73.1085 26.0505C73.2854 26.8618 73.4757 27.6765 73.6694 28.4979C73.8664 29.3192 74.0634 30.1072 74.2671 30.8652C74.4874 30.0705 74.7011 29.2625 74.9115 28.4311C75.1185 27.5997 75.3221 26.785 75.5191 25.9803C75.7128 25.179 75.8998 24.4011 76.0734 23.6531C76.2504 22.9052 76.4039 22.2041 76.5442 21.5563H79.2721C79.4123 22.2041 79.5592 22.9052 79.7295 23.6531C79.8964 24.4011 80.0734 25.1824 80.2604 25.9803C80.4407 26.7817 80.641 27.5997 80.838 28.4311C81.0417 29.2625 81.252 30.0705 81.469 30.8652C81.6727 30.1072 81.8764 29.3192 82.0801 28.4979C82.2837 27.6765 82.4774 26.8618 82.651 26.0505C82.828 25.2358 82.9949 24.4478 83.1585 23.6799C83.3221 22.9152 83.469 22.2007 83.6026 21.553H87.5225C87.1485 22.962 86.7679 24.3543 86.3672 25.7333C85.9665 27.1156 85.5826 28.4244 85.1986 29.6598C84.8213 30.8985 84.4473 32.0371 84.0867 33.0889C83.7228 34.1339 83.3856 35.0354 83.0851 35.7934H80.1502C79.7261 34.4211 79.3155 33.0588 78.9081 31.7032C78.5041 30.3543 78.1368 28.9887 77.7963 27.6164" fill="white"/>
<path d="M61.9752 46.7546H58.3959L57.7381 48.6411H56.1855L59.4577 39.8765H60.9101L64.1989 48.6411H62.6396L61.9785 46.7546H61.9752ZM61.5244 45.4658L60.1922 41.6728H60.1789L58.8466 45.4658H61.5211H61.5244Z" fill="#B2B2B2"/>
<path d="M70.2785 42.6213V48.638H68.8995V47.8567H68.8828C68.402 48.4344 67.7309 48.7349 67.0264 48.7349C65.7008 48.7349 64.7793 48.0737 64.7793 46.2841V42.6213H66.1583V45.9101C66.1583 47.1155 66.5189 47.4761 67.3502 47.4761C68.1816 47.4761 68.8995 46.8016 68.8995 45.4995V42.6213H70.2785Z" fill="#B2B2B2"/>
<path d="M73.5039 48.735C72.4688 48.735 71.8244 48.0772 71.8244 46.735V43.7967H71.0898V42.6214H71.8244V40.6214L73.2034 40.4712V42.6214H74.973V43.7967H73.2034V46.6081C73.2034 47.2224 73.397 47.4461 73.781 47.4461C74.0147 47.4461 74.3519 47.356 74.6725 47.1857L75.0331 48.3777C74.6725 48.5713 74.2918 48.7316 73.5039 48.7316V48.735Z" fill="#B2B2B2"/>
<path d="M81.5832 45.0353V48.6446H80.2042V45.3925C80.2042 44.1939 79.7301 43.7832 78.8987 43.7832C77.9037 43.7832 77.2794 44.3975 77.2794 45.5795V48.6379H75.9004V39.5562H77.2794V43.3758H77.3027C77.8069 42.8149 78.5381 42.5311 79.3395 42.5311C80.665 42.5311 81.5865 43.2423 81.5865 45.0353H81.5832Z" fill="#B2B2B2"/>
<path d="M88.4644 45.563C88.4644 45.7733 88.4477 46.0037 88.4277 46.1105H84.0437C84.224 46.9653 84.8751 47.4828 85.7599 47.4828C86.4577 47.4828 86.9519 47.159 87.2591 46.7716L88.224 47.5964C87.7132 48.2541 86.8684 48.7349 85.6898 48.7349C83.9369 48.7349 82.6113 47.5062 82.6113 45.6264C82.6113 43.7466 83.8701 42.5312 85.5462 42.5312C87.3225 42.5312 88.4677 43.8067 88.4677 45.5596L88.4644 45.563ZM84.0704 44.9954H87.0821C86.9085 44.2675 86.4076 43.7833 85.6197 43.7833C84.8317 43.7833 84.2708 44.2107 84.0704 44.9954Z" fill="#B2B2B2"/>
<path d="M95.2061 45.0989V48.6448H93.8272V45.4528C93.8272 44.1807 93.3497 43.7833 92.5183 43.7833C91.5834 43.7833 90.959 44.4344 90.959 45.613V48.6381H89.5801V42.6214H90.959V43.4461H90.9757C91.4866 42.8484 92.2178 42.5312 92.9924 42.5312C94.3113 42.5312 95.2028 43.2892 95.2028 45.0989H95.2061Z" fill="#B2B2B2"/>
<path d="M98.3828 48.735C97.3477 48.735 96.7033 48.0772 96.7033 46.735V43.7967H95.9688V42.6214H96.7033V40.6214L98.0823 40.4712V42.6214H99.8519V43.7967H98.0823V46.6081C98.0823 47.2224 98.2759 47.4461 98.6599 47.4461C98.8936 47.4461 99.2309 47.356 99.5514 47.1857L99.912 48.3777C99.5514 48.5713 99.1708 48.7316 98.3828 48.7316V48.735Z" fill="#B2B2B2"/>
<path d="M100.582 40.8087C100.582 40.3078 100.993 39.8938 101.517 39.8938C102.041 39.8938 102.445 40.3078 102.445 40.8087C102.445 41.3095 102.024 41.7235 101.517 41.7235C101.009 41.7235 100.582 41.3128 100.582 40.8087ZM100.816 42.6217H102.195V48.6384H100.816V42.6217Z" fill="#B2B2B2"/>
<path d="M103.42 45.6398C103.42 43.7967 104.709 42.5312 106.535 42.5312C107.473 42.5312 108.462 42.9119 109.066 43.6531L108.128 44.4678C107.784 44.0638 107.266 43.7867 106.609 43.7867C105.543 43.7867 104.826 44.5346 104.826 45.6297C104.826 46.7249 105.553 47.4862 106.615 47.4862C107.283 47.4862 107.821 47.1923 108.138 46.8351L109.089 47.6798C108.572 48.2708 107.65 48.7383 106.488 48.7383C104.719 48.7383 103.423 47.4862 103.423 45.6431L103.42 45.6398Z" fill="#B2B2B2"/>
<path d="M115.827 42.6214V48.6381H114.508V47.8301H114.492C114.051 48.4077 113.406 48.7349 112.575 48.7349C110.906 48.7349 109.66 47.5196 109.66 45.6565C109.66 43.7934 110.906 42.5312 112.565 42.5312C113.33 42.5312 113.974 42.8084 114.425 43.3459H114.448V42.6247H115.827V42.6214ZM112.789 47.4828C113.724 47.4828 114.498 46.7549 114.498 45.6631C114.498 44.5713 113.78 43.7833 112.795 43.7833C111.81 43.7833 111.059 44.5045 111.059 45.6631C111.059 46.7282 111.77 47.4828 112.789 47.4828Z" fill="#B2B2B2"/>
<path d="M119.045 48.735C118.01 48.735 117.365 48.0772 117.365 46.735V43.7967H116.631V42.6214H117.365V40.6214L118.744 40.4712V42.6214H120.514V43.7967H118.744V46.6081C118.744 47.2224 118.938 47.4461 119.322 47.4461C119.556 47.4461 119.893 47.356 120.213 47.1857L120.574 48.3777C120.213 48.5713 119.833 48.7316 119.045 48.7316V48.735Z" fill="#B2B2B2"/>
<path d="M123.967 48.7349C122.063 48.7349 120.805 47.4027 120.805 45.6398C120.805 43.8768 122.063 42.5312 123.967 42.5312C125.87 42.5312 127.122 43.7967 127.122 45.6398C127.122 47.4828 125.81 48.7349 123.967 48.7349ZM123.967 47.4828C124.942 47.4828 125.72 46.7249 125.72 45.6398C125.72 44.5546 124.955 43.7833 123.967 43.7833C122.912 43.7833 122.207 44.5913 122.207 45.6398C122.207 46.6882 122.928 47.4828 123.967 47.4828Z" fill="#B2B2B2"/>
<path d="M131.692 42.538V44.0739C131.535 44.0605 131.371 44.0572 131.278 44.0572C130.229 44.0572 129.635 44.8085 129.635 45.7868V48.6415H128.256V42.6248H129.635V43.5297H129.652C130.122 42.8919 130.79 42.5347 131.525 42.5347C131.585 42.5347 131.645 42.5347 131.692 42.5413V42.538Z" fill="#B2B2B2"/>
</g>
<defs>
<clipPath id="clip0_2549_79939">
<rect width="166.945" height="48.7345" fill="white"/>
</clipPath>
</defs>
</svg>
