<svg width="63" height="16" viewBox="0 0 63 16" fill="none" xmlns="http://www.w3.org/2000/svg">
<path d="M20.4389 8.23677L20.6502 7.11237C20.6502 7.11237 19.0229 6.61845 17.6986 7.53447V12.0325H19.1049V8.37804C19.6654 7.95595 20.4389 8.23677 20.4389 8.23677Z" fill="#00425F"/>
<mask id="mask0_931_85961" style="mask-type:luminance" maskUnits="userSpaceOnUse" x="17" y="6" width="4" height="7">
<path fill-rule="evenodd" clip-rule="evenodd" d="M17.6985 7.53447C18.3357 7.09383 19.0431 6.97943 19.6056 6.97952C20.2121 6.97952 20.6502 7.11246 20.6502 7.11246L20.4388 8.23686C20.4388 8.23686 19.6653 7.95604 19.1049 8.37804V12.0325H17.6985V7.53447Z" fill="white"/>
</mask>
<g mask="url(#mask0_931_85961)">
<path d="M-67.9125 25.9734L130.142 25.9734L130.142 -236.256H-67.9125L-67.9125 25.9734Z" fill="#00425F"/>
</g>
<mask id="mask1_931_85961" style="mask-type:luminance" maskUnits="userSpaceOnUse" x="17" y="6" width="4" height="7">
<path fill-rule="evenodd" clip-rule="evenodd" d="M17.6985 7.53447C18.3357 7.09383 19.043 6.97952 19.6056 6.97952C20.2121 6.97952 20.6502 7.11246 20.6502 7.11246L20.4388 8.23686C20.4388 8.23686 19.6653 7.95604 19.1049 8.37804V12.0325H17.6985V7.53447Z" fill="white"/>
</mask>
<g mask="url(#mask1_931_85961)">
<path d="M15.3407 14.2361H23.008V4.7759H15.3407V14.2361Z" fill="#00425F"/>
</g>
<path d="M8.31416 5.83008L9.7199 5.58256V7.04545H11.1109V8.21533H9.7199V9.95998C9.7199 10.2572 9.77132 10.4931 9.87647 10.6676C9.98041 10.8448 10.1889 10.9325 10.5019 10.9325C10.655 10.9325 10.8087 10.9188 10.9709 10.8897C11.1285 10.8601 11.2754 10.8221 11.4076 10.7723L11.6065 11.8681C11.4364 11.9364 11.2483 11.9956 11.041 12.0458C10.833 12.0955 10.5776 12.1214 10.2758 12.1214C9.89226 12.1214 9.57526 12.0691 9.32319 11.9655C9.0724 11.8618 8.87075 11.7163 8.72042 11.5307C8.57009 11.3467 8.46439 11.1208 8.40507 10.8564C8.34465 10.5925 8.31416 10.301 8.31416 9.97955V5.83008Z" fill="#00425F"/>
<mask id="mask2_931_85961" style="mask-type:luminance" maskUnits="userSpaceOnUse" x="8" y="5" width="4" height="8">
<path fill-rule="evenodd" clip-rule="evenodd" d="M8.31422 5.83008L9.71996 5.58256V7.04544H11.111V8.21533H9.71996V9.95998C9.71996 10.2573 9.77138 10.4931 9.87644 10.6676C9.98038 10.8448 10.1888 10.9325 10.5019 10.9325C10.655 10.9325 10.8086 10.9188 10.9709 10.8897C11.1285 10.8601 11.2755 10.8221 11.4077 10.7724L11.6065 11.8681C11.4364 11.9364 11.2483 11.9957 11.0409 12.0459C10.8329 12.0956 10.5776 12.1214 10.2758 12.1214C9.89214 12.1214 9.57523 12.0691 9.32325 11.9655C9.07237 11.8618 8.87062 11.7163 8.72038 11.5308C8.57006 11.3467 8.46445 11.1208 8.40513 10.8564C8.34462 10.5925 8.31422 10.3011 8.31422 9.97955V5.83008Z" fill="white"/>
</mask>
<g mask="url(#mask2_931_85961)">
<path d="M-67.9125 25.9734L130.142 25.9734L130.142 -236.256H-67.9125L-67.9125 25.9734Z" fill="#00425F"/>
</g>
<mask id="mask3_931_85961" style="mask-type:luminance" maskUnits="userSpaceOnUse" x="8" y="5" width="4" height="8">
<path fill-rule="evenodd" clip-rule="evenodd" d="M8.31422 5.83008L9.71996 5.58256V7.04544H11.111V8.21533H9.71996V9.95998C9.71996 10.2573 9.77138 10.4931 9.87644 10.6676C9.98038 10.8448 10.1888 10.9325 10.5019 10.9325C10.655 10.9325 10.8086 10.9188 10.9709 10.8897C11.1285 10.8601 11.2755 10.8221 11.4077 10.7724L11.6065 11.8681C11.4364 11.9364 11.2483 11.9957 11.0409 12.0459C10.8329 12.0956 10.5776 12.1214 10.2758 12.1214C9.89214 12.1214 9.57523 12.0691 9.32325 11.9655C9.07237 11.8618 8.87062 11.7163 8.72038 11.5308C8.57006 11.3467 8.46445 11.1208 8.40513 10.8564C8.34462 10.5925 8.31422 10.3011 8.31422 9.97955V5.83008Z" fill="white"/>
</mask>
<g mask="url(#mask3_931_85961)">
<path d="M5.95631 14.3251H13.9642V3.37893H5.95631L5.95631 14.3251Z" fill="#00425F"/>
</g>
<path d="M22.7323 11.0252C22.9895 11.0252 23.1714 10.9987 23.2794 10.949C23.3866 10.8988 23.4386 10.8004 23.4386 10.6566C23.4386 10.5429 23.3708 10.444 23.2318 10.3599C23.0928 10.2743 22.8838 10.1791 22.6002 10.0706C22.3803 9.98863 22.1803 9.90409 22.0001 9.8168C21.8221 9.72798 21.6696 9.6243 21.5436 9.50105C21.4181 9.37841 21.3209 9.23131 21.2508 9.06C21.1808 8.89178 21.1475 8.68821 21.1475 8.44807C21.1475 7.98315 21.3209 7.61453 21.6662 7.34427C22.0119 7.07512 22.4855 6.93764 23.09 6.93764C23.3923 6.93764 23.6816 6.96458 23.9584 7.01908C24.2348 7.07195 24.4557 7.13228 24.6178 7.19305L24.3731 8.28775C24.2093 8.23119 24.0314 8.1815 23.8398 8.13816C23.6482 8.09378 23.4324 8.07044 23.194 8.07044C22.7538 8.07044 22.5334 8.1942 22.5334 8.43906C22.5334 8.49562 22.5431 8.54591 22.5623 8.58977C22.5814 8.63422 22.6188 8.67654 22.6742 8.71722C22.7323 8.75747 22.8081 8.80287 22.9063 8.84948C23.0041 8.89865 23.1284 8.94937 23.2794 9.00705C23.5861 9.12128 23.8409 9.23234 24.0421 9.34451C24.2438 9.4566 24.402 9.57461 24.519 9.70566C24.6353 9.83371 24.7179 9.9755 24.7642 10.133C24.8105 10.2901 24.8348 10.4715 24.8348 10.6783C24.8348 11.1685 24.6506 11.5392 24.2839 11.7899C23.9155 12.0396 23.3945 12.1654 22.7216 12.1654C22.282 12.1654 21.9159 12.1289 21.6238 12.0523C21.3305 11.9777 21.1282 11.9133 21.0153 11.8635L21.2508 10.7222C21.4888 10.8163 21.7362 10.8893 21.986 10.9444C22.2391 10.9983 22.4855 11.0252 22.7323 11.0252Z" fill="#00425F"/>
<mask id="mask4_931_85961" style="mask-type:luminance" maskUnits="userSpaceOnUse" x="21" y="6" width="4" height="7">
<path fill-rule="evenodd" clip-rule="evenodd" d="M21.6661 7.34436C22.0119 7.07512 22.4854 6.93764 23.0899 6.93764C23.3923 6.93764 23.6816 6.96458 23.9585 7.01908C24.2347 7.07195 24.4556 7.1322 24.6178 7.19305L24.3732 8.28775C24.2093 8.23119 24.0314 8.1815 23.8397 8.13816C23.6483 8.09369 23.4324 8.07053 23.194 8.07053C22.7538 8.07053 22.5335 8.19411 22.5335 8.43906C22.5335 8.49562 22.543 8.54591 22.5622 8.58977C22.5815 8.63422 22.6188 8.67654 22.6742 8.71722C22.7323 8.75747 22.8081 8.80287 22.9064 8.84948C23.0041 8.89857 23.1283 8.94946 23.2793 9.00705C23.5861 9.12128 23.8409 9.23234 24.042 9.34451C24.2438 9.4566 24.402 9.57452 24.519 9.70566C24.6354 9.83371 24.7178 9.97541 24.7642 10.133C24.8106 10.2901 24.8347 10.4715 24.8347 10.6783C24.8347 11.1685 24.6505 11.5393 24.2839 11.7899C23.9155 12.0396 23.3945 12.1654 22.7216 12.1654C22.282 12.1654 21.9159 12.1289 21.6238 12.0523C21.3305 11.9777 21.1283 11.9133 21.0152 11.8635L21.2509 10.7222C21.4888 10.8164 21.7362 10.8893 21.986 10.9444C22.239 10.9982 22.4854 11.0252 22.7323 11.0252C22.9894 11.0252 23.1714 10.9988 23.2793 10.949C23.3866 10.8988 23.4386 10.8004 23.4386 10.6566C23.4386 10.5429 23.3708 10.444 23.2318 10.3599C23.0928 10.2743 22.8837 10.1791 22.6001 10.0706C22.3803 9.98863 22.1804 9.90409 22 9.8168C21.8221 9.72798 21.6695 9.6243 21.5436 9.50105C21.4181 9.37833 21.3209 9.23131 21.2509 9.06C21.1808 8.8917 21.1475 8.68821 21.1475 8.44807C21.1475 7.98324 21.3209 7.61462 21.6661 7.34436Z" fill="white"/>
</mask>
<g mask="url(#mask4_931_85961)">
<path d="M-67.9125 25.9734L130.142 25.9734L130.142 -236.256H-67.9125L-67.9125 25.9734Z" fill="#00425F"/>
</g>
<mask id="mask5_931_85961" style="mask-type:luminance" maskUnits="userSpaceOnUse" x="21" y="6" width="4" height="7">
<path fill-rule="evenodd" clip-rule="evenodd" d="M21.6661 7.34436C22.0119 7.07512 22.4854 6.93764 23.0899 6.93764C23.3923 6.93764 23.6816 6.96458 23.9585 7.01908C24.2347 7.07195 24.4556 7.1322 24.6178 7.19305L24.3732 8.28775C24.2093 8.23119 24.0314 8.1815 23.8397 8.13816C23.6483 8.09369 23.4324 8.07053 23.194 8.07053C22.7538 8.07053 22.5335 8.19411 22.5335 8.43906C22.5335 8.49562 22.543 8.54591 22.5622 8.58977C22.5815 8.63422 22.6188 8.67654 22.6742 8.71722C22.7323 8.75747 22.8081 8.80287 22.9064 8.84948C23.0041 8.89857 23.1283 8.94946 23.2793 9.00705C23.5861 9.12128 23.8409 9.23234 24.042 9.34451C24.2438 9.4566 24.402 9.57452 24.519 9.70566C24.6354 9.83371 24.7178 9.97541 24.7642 10.133C24.8106 10.2901 24.8347 10.4715 24.8347 10.6783C24.8347 11.1685 24.6505 11.5393 24.2839 11.7899C23.9155 12.0396 23.3945 12.1654 22.7216 12.1654C22.282 12.1654 21.9159 12.1289 21.6238 12.0523C21.3305 11.9777 21.1283 11.9133 21.0152 11.8635L21.2509 10.7222C21.4888 10.8164 21.7362 10.8893 21.986 10.9444C22.239 10.9982 22.4854 11.0252 22.7323 11.0252C22.9894 11.0252 23.1714 10.9988 23.2793 10.949C23.3866 10.8988 23.4386 10.8004 23.4386 10.6566C23.4386 10.5429 23.3708 10.444 23.2318 10.3599C23.0928 10.2743 22.8837 10.1791 22.6001 10.0706C22.3803 9.98863 22.1804 9.90409 22 9.8168C21.8221 9.72798 21.6695 9.6243 21.5436 9.50105C21.4181 9.37833 21.3209 9.23131 21.2509 9.06C21.1808 8.8917 21.1475 8.68821 21.1475 8.44807C21.1475 7.98324 21.3209 7.61462 21.6661 7.34436Z" fill="white"/>
</mask>
<g mask="url(#mask5_931_85961)">
<path d="M18.6575 14.3691H27.1926V4.73401H18.6575V14.3691Z" fill="#00425F"/>
</g>
<path d="M29.1675 9.18392C29.0415 9.66205 28.9087 10.138 28.7669 10.6087C28.6256 11.081 28.4753 11.5559 28.32 12.034H27.2255C27.1119 11.7696 26.9882 11.4554 26.856 11.091C26.7226 10.7251 26.5865 10.3279 26.4435 9.89583C26.3022 9.46525 26.1576 9.00943 26.0095 8.52709C25.8609 8.0469 25.7169 7.56139 25.579 7.07004H27.0605C27.1096 7.29585 27.1656 7.54397 27.226 7.81097C27.286 8.07857 27.3492 8.35415 27.4153 8.63764C27.4815 8.92009 27.5521 9.20399 27.6244 9.49065C27.6973 9.7773 27.7719 10.0518 27.8475 10.3158C27.9295 10.0392 28.0098 9.75671 28.0883 9.46739C28.1657 9.17765 28.242 8.89305 28.3148 8.61335C28.3866 8.33407 28.4573 8.06278 28.5216 7.80153C28.5872 7.5407 28.6454 7.29585 28.6968 7.07004H29.7144C29.7664 7.29585 29.8211 7.5407 29.8849 7.80153C29.9471 8.06278 30.0133 8.33407 30.0834 8.61335C30.1511 8.89305 30.2252 9.17765 30.2992 9.46739C30.3754 9.75671 30.4535 10.0392 30.5343 10.3158C30.6105 10.0518 30.6862 9.7773 30.7625 9.49065C30.8388 9.20399 30.9105 8.92009 30.9761 8.63764C31.0416 8.35415 31.1049 8.07857 31.166 7.81097C31.2264 7.54397 31.2812 7.29585 31.3314 7.07004H32.7937C32.6548 7.56139 32.5118 8.0469 32.3632 8.52709C32.2135 9.00943 32.0705 9.46525 31.9276 9.89583C31.7868 10.3279 31.6479 10.7251 31.5128 11.091C31.3767 11.4554 31.2512 11.7696 31.1394 12.034H30.045C29.8867 11.5559 29.733 11.081 29.5816 10.6087C29.4307 10.138 29.294 9.66205 29.1675 9.18392Z" fill="#00425F"/>
<mask id="mask6_931_85961" style="mask-type:luminance" maskUnits="userSpaceOnUse" x="25" y="7" width="8" height="6">
<path fill-rule="evenodd" clip-rule="evenodd" d="M31.3314 7.07017H32.7937C32.6548 7.56151 32.5118 8.04703 32.3631 8.52713C32.2135 9.00955 32.0705 9.46545 31.9275 9.89595C31.7868 10.328 31.6479 10.7252 31.5127 11.0912C31.3766 11.4556 31.2512 11.7696 31.1393 12.0341H30.0449C29.8867 11.5561 29.733 11.081 29.5816 10.6087C29.4307 10.1382 29.294 9.66217 29.1675 9.18404C29.0414 9.66217 28.9086 10.1382 28.7669 10.6087C28.6256 11.081 28.4753 11.5561 28.3199 12.0341H27.2254C27.1119 11.7696 26.9882 11.4556 26.8559 11.0912C26.7226 10.7252 26.5864 10.328 26.4435 9.89595C26.3022 9.46545 26.1575 9.00955 26.0095 8.52713C25.8609 8.04703 25.7169 7.56151 25.579 7.07017H27.0604C27.1096 7.29598 27.1656 7.544 27.226 7.8111C27.286 8.07869 27.3491 8.35428 27.4153 8.63767C27.4814 8.92013 27.5521 9.20412 27.6244 9.49078C27.6973 9.77743 27.7719 10.0519 27.8475 10.3159C27.9294 10.0393 28.0097 9.75675 28.0882 9.46752C28.1656 9.17777 28.242 8.89317 28.3148 8.61347C28.3865 8.33411 28.4572 8.06282 28.5216 7.80165C28.5872 7.54083 28.6454 7.29598 28.6967 7.07017H29.7144C29.7663 7.29598 29.8211 7.54083 29.8849 7.80165C29.9471 8.06282 30.0133 8.33411 30.0833 8.61347C30.1511 8.89317 30.2251 9.17777 30.2992 9.46752C30.3754 9.75675 30.4535 10.0393 30.5342 10.3159C30.6105 10.0519 30.6862 9.77743 30.7625 9.49078C30.8388 9.20412 30.9105 8.92013 30.9761 8.63767C31.0416 8.35428 31.1049 8.07869 31.1659 7.8111C31.2264 7.544 31.2812 7.29598 31.3314 7.07017Z" fill="white"/>
</mask>
<g mask="url(#mask6_931_85961)">
<path d="M-67.9125 25.9734L130.142 25.9734L130.142 -236.256H-67.9125L-67.9125 25.9734Z" fill="#00425F"/>
</g>
<mask id="mask7_931_85961" style="mask-type:luminance" maskUnits="userSpaceOnUse" x="25" y="7" width="8" height="6">
<path fill-rule="evenodd" clip-rule="evenodd" d="M31.3314 7.07017H32.7937C32.6548 7.56151 32.5118 8.04703 32.3631 8.52713C32.2135 9.00955 32.0705 9.46545 31.9275 9.89595C31.7868 10.328 31.6479 10.7252 31.5127 11.0912C31.3766 11.4556 31.2512 11.7696 31.1393 12.0341H30.0449C29.8867 11.5561 29.733 11.081 29.5816 10.6087C29.4307 10.1382 29.294 9.66217 29.1675 9.18404C29.0414 9.66217 28.9086 10.1382 28.7669 10.6087C28.6256 11.081 28.4753 11.5561 28.3199 12.0341H27.2254C27.1119 11.7696 26.9882 11.4556 26.8559 11.0912C26.7226 10.7252 26.5864 10.328 26.4435 9.89595C26.3022 9.46545 26.1575 9.00955 26.0095 8.52713C25.8609 8.04703 25.7169 7.56151 25.579 7.07017H27.0604C27.1096 7.29598 27.1656 7.544 27.226 7.8111C27.286 8.07869 27.3491 8.35428 27.4153 8.63767C27.4814 8.92013 27.5521 9.20412 27.6244 9.49078C27.6973 9.77743 27.7719 10.0519 27.8475 10.3159C27.9294 10.0393 28.0097 9.75675 28.0882 9.46752C28.1656 9.17777 28.242 8.89317 28.3148 8.61347C28.3865 8.33411 28.4572 8.06282 28.5216 7.80165C28.5872 7.54083 28.6454 7.29598 28.6967 7.07017H29.7144C29.7663 7.29598 29.8211 7.54083 29.8849 7.80165C29.9471 8.06282 30.0133 8.33411 30.0833 8.61347C30.1511 8.89317 30.2251 9.17777 30.2992 9.46752C30.3754 9.75675 30.4535 10.0393 30.5342 10.3159C30.6105 10.0519 30.6862 9.77743 30.7625 9.49078C30.8388 9.20412 30.9105 8.92013 30.9761 8.63767C31.0416 8.35428 31.1049 8.07869 31.1659 7.8111C31.2264 7.544 31.2812 7.29598 31.3314 7.07017Z" fill="white"/>
</mask>
<g mask="url(#mask7_931_85961)">
<path d="M23.2212 14.2378H35.1515V4.86659H23.2212V14.2378Z" fill="#00425F"/>
</g>
<path d="M33.7874 12.0322H35.1909V7.06926H33.7874V12.0322Z" fill="#00425F"/>
<mask id="mask8_931_85961" style="mask-type:luminance" maskUnits="userSpaceOnUse" x="33" y="7" width="3" height="6">
<path fill-rule="evenodd" clip-rule="evenodd" d="M33.7874 12.0322V7.06932H35.191V12.0322H33.7874Z" fill="white"/>
</mask>
<g mask="url(#mask8_931_85961)">
<path d="M-67.9125 25.9734L130.142 25.9734L130.142 -236.256H-67.9125L-67.9125 25.9734Z" fill="#00425F"/>
</g>
<mask id="mask9_931_85961" style="mask-type:luminance" maskUnits="userSpaceOnUse" x="33" y="7" width="3" height="6">
<path fill-rule="evenodd" clip-rule="evenodd" d="M33.7874 12.0322V7.06932H35.191V12.0322H33.7874Z" fill="white"/>
</mask>
<g mask="url(#mask9_931_85961)">
<path d="M31.4295 14.2358H37.5486V4.8656H31.4295V14.2358Z" fill="#00425F"/>
</g>
<path d="M36.3074 5.83153L37.712 5.58246V7.0717H39.1021V8.23944H37.712V9.9858C37.712 10.2814 37.764 10.5195 37.8674 10.6934C37.9708 10.8695 38.1804 10.9579 38.4941 10.9579C38.6461 10.9579 38.802 10.9452 38.9613 10.9161C39.1223 10.8875 39.2681 10.8468 39.4009 10.7976L39.5981 11.8924C39.428 11.9621 39.2387 12.0214 39.0326 12.0721C38.8239 12.1218 38.5715 12.1472 38.2685 12.1472C37.8844 12.1472 37.5674 12.0955 37.316 11.9907C37.064 11.8886 36.8628 11.7443 36.7126 11.557C36.5622 11.373 36.4572 11.1461 36.3968 10.8833C36.3357 10.6183 36.3074 10.3253 36.3074 10.0053V5.83153Z" fill="#00425F"/>
<mask id="mask10_931_85961" style="mask-type:luminance" maskUnits="userSpaceOnUse" x="36" y="5" width="4" height="8">
<path fill-rule="evenodd" clip-rule="evenodd" d="M36.3074 5.83153L37.712 5.58246V7.0717H39.102V8.23944H37.712V9.9858C37.712 10.2814 37.764 10.5194 37.8674 10.6934C37.9708 10.8695 38.1804 10.9578 38.494 10.9578C38.646 10.9578 38.802 10.9452 38.9613 10.9161C39.1223 10.8874 39.2681 10.8468 39.4008 10.7976L39.5981 11.8923C39.428 11.9621 39.2386 12.0214 39.0326 12.0721C38.8239 12.1218 38.5715 12.1472 38.2685 12.1472C37.8844 12.1472 37.5673 12.0955 37.316 11.9907C37.0639 11.8885 36.8628 11.7443 36.7126 11.5571C36.5622 11.373 36.4572 11.1462 36.3967 10.8833C36.3357 10.6183 36.3074 10.3252 36.3074 10.0054V5.83153Z" fill="white"/>
</mask>
<g mask="url(#mask10_931_85961)">
<path d="M-67.9125 25.9734L130.142 25.9734L130.142 -236.256H-67.9125L-67.9125 25.9734Z" fill="#00425F"/>
</g>
<mask id="mask11_931_85961" style="mask-type:luminance" maskUnits="userSpaceOnUse" x="36" y="5" width="4" height="8">
<path fill-rule="evenodd" clip-rule="evenodd" d="M36.3074 5.83153L37.712 5.58246V7.0717H39.102V8.23944H37.712V9.9858C37.712 10.2814 37.764 10.5194 37.8674 10.6934C37.9708 10.8695 38.1804 10.9578 38.494 10.9578C38.646 10.9578 38.802 10.9452 38.9613 10.9161C39.1223 10.8874 39.2681 10.8468 39.4008 10.7976L39.5981 11.8923C39.428 11.9621 39.2386 12.0214 39.0326 12.0721C38.8239 12.1218 38.5715 12.1472 38.2685 12.1472C37.8844 12.1472 37.5673 12.0955 37.316 11.9907C37.0639 11.8885 36.8628 11.7443 36.7126 11.5571C36.5622 11.373 36.4572 11.1462 36.3967 10.8833C36.3357 10.6183 36.3074 10.3252 36.3074 10.0054V5.83153Z" fill="white"/>
</mask>
<g mask="url(#mask11_931_85961)">
<path d="M33.9496 14.3509H41.9559V3.37882H33.9496V14.3509Z" fill="#00425F"/>
</g>
<path d="M40.0945 9.55327C40.0945 9.19409 40.1528 8.85568 40.2692 8.53838C40.3855 8.21998 40.5534 7.94397 40.7732 7.70751C40.9935 7.47115 41.2602 7.28491 41.5754 7.14588C41.889 7.0089 42.2473 6.93801 42.6496 6.93801C42.9134 6.93801 43.1558 6.9629 43.3761 7.00941C43.5966 7.05756 43.8113 7.12476 44.0175 7.21196L43.726 8.33481C43.5932 8.28503 43.4491 8.24169 43.2909 8.20256C43.1338 8.16548 42.9569 8.146 42.7626 8.146C42.3479 8.146 42.0376 8.27551 41.8348 8.53358C41.6285 8.79226 41.528 9.13126 41.528 9.55327C41.528 9.99904 41.6235 10.3454 41.8168 10.5909C42.0066 10.8358 42.3422 10.959 42.8197 10.959C42.9897 10.959 43.1711 10.9425 43.3671 10.9114C43.5616 10.8796 43.7406 10.8299 43.9056 10.7601L44.1023 11.912C43.9383 11.9813 43.735 12.0394 43.4898 12.0907C43.2435 12.1406 42.9738 12.1664 42.679 12.1664C42.2263 12.1664 41.8354 12.0976 41.5093 11.9627C41.1829 11.8279 40.9133 11.6438 40.7031 11.4111C40.4912 11.1779 40.3387 10.903 40.241 10.5856C40.1432 10.2678 40.0945 9.92301 40.0945 9.55327Z" fill="#00425F"/>
<mask id="mask12_931_85961" style="mask-type:luminance" maskUnits="userSpaceOnUse" x="40" y="6" width="5" height="7">
<path fill-rule="evenodd" clip-rule="evenodd" d="M41.5754 7.14588C41.889 7.0089 42.2473 6.93801 42.6496 6.93801C42.9134 6.93801 43.1558 6.96282 43.3761 7.00933C43.5965 7.05756 43.8113 7.12468 44.0175 7.21196L43.726 8.33472C43.5931 8.28503 43.4491 8.24169 43.2908 8.20256C43.1337 8.1654 42.9569 8.14591 42.7625 8.14591C42.3479 8.14591 42.0376 8.27551 41.8348 8.53358C41.6285 8.79218 41.528 9.13118 41.528 9.55327C41.528 9.99904 41.6236 10.3454 41.8168 10.5909C42.0066 10.8358 42.3421 10.959 42.8196 10.959C42.9897 10.959 43.1711 10.9425 43.3671 10.9114C43.5615 10.8796 43.7406 10.8299 43.9055 10.7601L44.1022 11.912C43.9384 11.9813 43.735 12.0394 43.4897 12.0907C43.2434 12.1405 42.9739 12.1664 42.679 12.1664C42.2262 12.1664 41.8354 12.0976 41.5093 11.9626C41.1829 11.8278 40.9133 11.6438 40.703 11.4112C40.4913 11.1779 40.3387 10.903 40.241 10.5856C40.1432 10.2678 40.0945 9.92292 40.0945 9.55327C40.0945 9.19409 40.1528 8.85568 40.2692 8.53838C40.3855 8.21998 40.5534 7.94388 40.7731 7.70743C40.9935 7.47107 41.2602 7.28491 41.5754 7.14588Z" fill="white"/>
</mask>
<g mask="url(#mask12_931_85961)">
<path d="M-67.9125 25.9734L130.142 25.9734L130.142 -236.256H-67.9125L-67.9125 25.9734Z" fill="#00425F"/>
</g>
<mask id="mask13_931_85961" style="mask-type:luminance" maskUnits="userSpaceOnUse" x="40" y="6" width="5" height="7">
<path fill-rule="evenodd" clip-rule="evenodd" d="M41.5754 7.14588C41.889 7.0089 42.2473 6.93801 42.6496 6.93801C42.9134 6.93801 43.1558 6.96282 43.3761 7.00933C43.5965 7.05756 43.8113 7.12468 44.0175 7.21196L43.726 8.33472C43.5931 8.28503 43.4491 8.24169 43.2908 8.20256C43.1337 8.1654 42.9569 8.14591 42.7625 8.14591C42.3479 8.14591 42.0376 8.27551 41.8348 8.53358C41.6285 8.79218 41.528 9.13118 41.528 9.55327C41.528 9.99904 41.6236 10.3454 41.8168 10.5909C42.0066 10.8358 42.3421 10.959 42.8196 10.959C42.9897 10.959 43.1711 10.9425 43.3671 10.9114C43.5615 10.8796 43.7406 10.8299 43.9055 10.7601L44.1022 11.912C43.9384 11.9813 43.735 12.0394 43.4897 12.0907C43.2434 12.1405 42.9739 12.1664 42.679 12.1664C42.2262 12.1664 41.8354 12.0976 41.5093 11.9626C41.1829 11.8278 40.9133 11.6438 40.703 11.4112C40.4913 11.1779 40.3387 10.903 40.241 10.5856C40.1432 10.2678 40.0945 9.92292 40.0945 9.55327C40.0945 9.19409 40.1528 8.85568 40.2692 8.53838C40.3855 8.21998 40.5534 7.94388 40.7731 7.70743C40.9935 7.47107 41.2602 7.28491 41.5754 7.14588Z" fill="white"/>
</mask>
<g mask="url(#mask13_931_85961)">
<path d="M37.7367 14.3701H46.4599V4.73439H37.7367V14.3701Z" fill="#00425F"/>
</g>
<path d="M45.0104 12.0322V5.82965L46.4156 5.58273V7.08999C46.5093 7.05874 46.6297 7.02862 46.779 7.00012C46.9258 6.97206 47.0699 6.95722 47.2078 6.95722C47.6095 6.95722 47.9434 7.01275 48.2111 7.12226C48.4779 7.23229 48.6932 7.38832 48.8525 7.58975C49.0141 7.79024 49.1259 8.03029 49.1933 8.30587C49.2582 8.58343 49.2909 8.8924 49.2909 9.23192V12.0322H47.8862V9.40057C47.8862 8.94784 47.8281 8.62737 47.7123 8.43753C47.5959 8.25077 47.3801 8.15619 47.0665 8.15619C46.9388 8.15619 46.8223 8.16734 46.7116 8.18846C46.602 8.21069 46.5032 8.23498 46.4156 8.25986V12.0322H45.0104Z" fill="#00425F"/>
<mask id="mask14_931_85961" style="mask-type:luminance" maskUnits="userSpaceOnUse" x="45" y="5" width="5" height="8">
<path fill-rule="evenodd" clip-rule="evenodd" d="M45.0104 5.82965L46.4155 5.58273V7.09008C46.5093 7.05874 46.6297 7.02862 46.779 7.00012C46.9258 6.97206 47.0699 6.9573 47.2078 6.9573C47.6095 6.9573 47.9434 7.01283 48.2112 7.12226C48.4779 7.23237 48.6932 7.38832 48.8525 7.58984C49.014 7.79024 49.126 8.03029 49.1933 8.30596C49.2582 8.58352 49.2909 8.8924 49.2909 9.23201V12.0322H47.8863V9.40057C47.8863 8.94793 47.828 8.62737 47.7123 8.43753C47.5959 8.25086 47.3801 8.15619 47.0665 8.15619C46.9388 8.15619 46.8223 8.16735 46.7116 8.18855C46.602 8.21069 46.5032 8.23498 46.4155 8.25986V12.0322H45.0104V5.82965Z" fill="white"/>
</mask>
<g mask="url(#mask14_931_85961)">
<path d="M-67.9125 25.9734L130.142 25.9734L130.142 -236.256H-67.9125L-67.9125 25.9734Z" fill="#00425F"/>
</g>
<mask id="mask15_931_85961" style="mask-type:luminance" maskUnits="userSpaceOnUse" x="45" y="5" width="5" height="8">
<path fill-rule="evenodd" clip-rule="evenodd" d="M45.0104 5.82965L46.4155 5.58273V7.09008C46.5093 7.05874 46.6297 7.02862 46.779 7.00012C46.9258 6.97206 47.0699 6.9573 47.2078 6.9573C47.6095 6.9573 47.9434 7.01283 48.2112 7.12226C48.4779 7.23237 48.6932 7.38832 48.8525 7.58984C49.014 7.79024 49.126 8.03029 49.1933 8.30596C49.2582 8.58352 49.2909 8.8924 49.2909 9.23201V12.0322H47.8863V9.40057C47.8863 8.94793 47.828 8.62737 47.7123 8.43753C47.5959 8.25086 47.3801 8.15619 47.0665 8.15619C46.9388 8.15619 46.8223 8.16735 46.7116 8.18855C46.602 8.21069 46.5032 8.23498 46.4155 8.25986V12.0322H45.0104V5.82965Z" fill="white"/>
</mask>
<g mask="url(#mask15_931_85961)">
<path d="M42.6526 14.2359H51.6487V3.37906H42.6526V14.2359Z" fill="#00425F"/>
</g>
<path d="M2.64545 12.0339L2.64545 7.53638C2.64545 7.53638 3.35171 6.97208 4.89648 6.97208C6.30221 6.97208 7.07414 7.67499 7.07414 9.22189V12.0339H5.67006V9.22189C5.67006 8.23663 5.1773 8.16839 4.75634 8.16839C4.3354 8.16839 4.05348 8.37781 4.05348 8.37781V12.0339H2.64545Z" fill="#00425F"/>
<mask id="mask16_931_85961" style="mask-type:luminance" maskUnits="userSpaceOnUse" x="2" y="6" width="6" height="7">
<path fill-rule="evenodd" clip-rule="evenodd" d="M2.64545 7.53638C2.64545 7.53638 3.35171 6.97208 4.89648 6.97208C6.30221 6.97208 7.07405 7.6749 7.07405 9.22198V12.0339H5.67005V9.22198C5.67005 8.23654 5.1773 8.16839 4.75634 8.16839C4.3354 8.16839 4.05348 8.37789 4.05348 8.37789V12.0339H2.64545L2.64545 7.53638Z" fill="white"/>
</mask>
<g mask="url(#mask16_931_85961)">
<path d="M-67.9125 25.9734L130.142 25.9734L130.142 -236.256H-67.9125L-67.9125 25.9734Z" fill="#00425F"/>
</g>
<mask id="mask17_931_85961" style="mask-type:luminance" maskUnits="userSpaceOnUse" x="2" y="6" width="6" height="7">
<path fill-rule="evenodd" clip-rule="evenodd" d="M2.64545 7.53638C2.64545 7.53638 3.35171 6.97208 4.89648 6.97208C6.30221 6.97208 7.07405 7.6749 7.07405 9.22198V12.0339H5.67005V9.22198C5.67005 8.23654 5.1773 8.16839 4.75634 8.16839C4.3354 8.16839 4.05348 8.37789 4.05348 8.37789V12.0339H2.64545L2.64545 7.53638Z" fill="white"/>
</mask>
<g mask="url(#mask17_931_85961)">
<path d="M0.287769 14.2375H9.43187V4.76854H0.287769L0.287769 14.2375Z" fill="#00425F"/>
</g>
<path d="M0 12.0339L0 5.83022L1.40575 5.58267L1.40575 12.0339H0Z" fill="#00425F"/>
<mask id="mask18_931_85961" style="mask-type:luminance" maskUnits="userSpaceOnUse" x="0" y="5" width="2" height="8">
<path fill-rule="evenodd" clip-rule="evenodd" d="M0 5.83031L1.40575 5.58267L1.40575 12.0339H0L0 5.83031Z" fill="white"/>
</mask>
<g mask="url(#mask18_931_85961)">
<path d="M-67.9125 25.9734L130.142 25.9734L130.142 -236.256H-67.9125L-67.9125 25.9734Z" fill="#00425F"/>
</g>
<mask id="mask19_931_85961" style="mask-type:luminance" maskUnits="userSpaceOnUse" x="0" y="5" width="2" height="8">
<path fill-rule="evenodd" clip-rule="evenodd" d="M0 5.83031L1.40575 5.58267L1.40575 12.0339H0L0 5.83031Z" fill="white"/>
</mask>
<g mask="url(#mask19_931_85961)">
<path d="M-2.3578 14.2375H3.7636L3.7636 3.37916H-2.3578L-2.3578 14.2375Z" fill="#00425F"/>
</g>
<path fill-rule="evenodd" clip-rule="evenodd" d="M13.4374 9.90864H16.5993C16.7406 9.06344 16.5993 6.95755 14.4907 6.95755C13.0854 6.95755 12.1023 7.94016 12.1023 9.48767C12.1023 11.4555 13.3668 12.1573 14.7732 12.1573C15.7563 12.1573 16.4586 11.8786 16.4586 11.8786L16.318 10.7527C16.318 10.7527 15.6151 10.9627 14.9121 10.9627C13.508 10.9627 13.4374 9.90864 13.4374 9.90864ZM13.4374 8.92378C13.4374 8.92378 13.508 7.94014 14.4218 7.94014C15.3348 7.94014 15.4037 8.92378 15.4037 8.92378H13.4374Z" fill="#00425F"/>
<mask id="mask20_931_85961" style="mask-type:luminance" maskUnits="userSpaceOnUse" x="12" y="6" width="5" height="7">
<path fill-rule="evenodd" clip-rule="evenodd" d="M12.1024 9.48759C12.1024 7.94008 13.0855 6.95747 14.4907 6.95747C16.5993 6.95747 16.7405 9.06344 16.5993 9.90856H13.4375C13.4375 9.90856 13.5081 10.9626 14.9121 10.9626C15.6151 10.9626 16.3179 10.7526 16.3179 10.7526L16.4586 11.8785C16.4586 11.8785 15.7563 12.1573 14.7732 12.1573C13.3669 12.1573 12.1024 11.4555 12.1024 9.48759ZM14.4217 7.94005C13.5081 7.94005 13.4375 8.92378 13.4375 8.92378H15.4038C15.4038 8.92378 15.3348 7.94005 14.4217 7.94005Z" fill="white"/>
</mask>
<g mask="url(#mask20_931_85961)">
<path d="M-67.9125 25.9734L130.142 25.9734L130.142 -236.256H-67.9125L-67.9125 25.9734Z" fill="#00425F"/>
</g>
<mask id="mask21_931_85961" style="mask-type:luminance" maskUnits="userSpaceOnUse" x="12" y="6" width="5" height="7">
<path fill-rule="evenodd" clip-rule="evenodd" d="M12.1024 9.48759C12.1024 7.94008 13.0855 6.95747 14.4907 6.95747C16.5993 6.95747 16.7405 9.06344 16.5993 9.90856H13.4375C13.4375 9.90856 13.5081 10.9626 14.9121 10.9626C15.6151 10.9626 16.3179 10.7526 16.3179 10.7526L16.4586 11.8785C16.4586 11.8785 15.7563 12.1573 14.7732 12.1573C13.3669 12.1573 12.1024 11.4555 12.1024 9.48759ZM14.4217 7.94005C13.5081 7.94005 13.4375 8.92378 13.4375 8.92378H15.4038C15.4038 8.92378 15.3348 7.94005 14.4217 7.94005Z" fill="white"/>
</mask>
<g mask="url(#mask21_931_85961)">
<path d="M9.74456 14.3609H18.9964V4.75382H9.74456V14.3609Z" fill="#00425F"/>
</g>
<mask id="mask22_931_85961" style="mask-type:luminance" maskUnits="userSpaceOnUse" x="51" y="4" width="10" height="12">
<path fill-rule="evenodd" clip-rule="evenodd" d="M51.1529 5.58399C51.1529 5.28412 55.1943 4.637 57.9048 4.637C59.0802 4.637 60.0052 4.7587 60.2419 5.08312C61.4623 6.58935 52.8707 16.0391 52.1548 15.7525C51.5806 15.6091 56.7353 9.59434 55.8761 7.15897C55.4471 5.87116 51.1529 6.01441 51.1529 5.58399Z" fill="white"/>
</mask>
<g mask="url(#mask22_931_85961)">
<path d="M48.7952 17.9625H62.7182V2.43343H48.7952V17.9625Z" fill="#EE312A"/>
</g>
<mask id="mask23_931_85961" style="mask-type:luminance" maskUnits="userSpaceOnUse" x="58" y="0" width="5" height="4">
<path fill-rule="evenodd" clip-rule="evenodd" d="M58.4527 1.86104C58.4527 0.832435 59.2861 1.74046e-05 60.3133 1.74046e-05C61.3416 1.74046e-05 62.1739 0.832435 62.1739 1.86104C62.1739 2.89018 61.3416 3.7226 60.3133 3.7226C59.2861 3.7226 58.4527 2.89018 58.4527 1.86104Z" fill="white"/>
</mask>
<g mask="url(#mask23_931_85961)">
<path d="M56.0949 5.92627L64.5317 5.92627V-2.20367H56.0949V5.92627Z" fill="#EE312A"/>
</g>
</svg>
