<svg width="32" height="33" viewBox="0 0 32 33" fill="none" xmlns="http://www.w3.org/2000/svg">
<g clip-path="url(#clip0_457_21465)">
<path d="M0.000104132 18.8299L0.0801041 6.8319C0.0941041 4.6599 1.6131 2.7979 3.7101 2.3829L15.2971 0.0858989C18.0811 -0.466101 20.6651 1.7129 20.6471 4.5959L20.5671 16.5959C20.5521 18.7669 19.0331 20.6279 16.9361 21.0439L5.3491 23.3409C2.5651 23.8929 -0.0188959 21.7139 0.000104132 18.8299Z" fill="#1F2140" fill-opacity="0.2"/>
<path d="M5.67711 23.617L5.75711 11.617C5.77011 9.44701 7.29011 7.58601 9.38711 7.17001L20.9741 4.87401C23.7581 4.32201 26.3421 6.50001 26.3231 9.38401L26.2431 21.384C26.2291 23.555 24.7101 25.416 22.6131 25.832L11.0261 28.129C8.24211 28.68 5.65811 26.502 5.67711 23.619V23.617Z" fill="#1F2140" fill-opacity="0.5"/>
<path d="M11.3541 28.4041L11.4341 16.4041C11.4481 14.2321 12.9671 12.3721 15.0641 11.9561L26.6511 9.65914C29.4351 9.10714 32.0191 11.2861 32.0001 14.1691L31.9201 26.1691C31.9061 28.3411 30.3871 30.2021 28.2901 30.6171L16.7031 32.9141C13.9191 33.4661 11.3351 31.2871 11.3531 28.4041H11.3541Z" fill="#1F2140" fill-opacity="0.8"/>
</g>
<defs>
<clipPath id="clip0_457_21465">
<rect width="32" height="33" fill="white"/>
</clipPath>
</defs>
</svg>
