<svg width="32" height="33" viewBox="0 0 32 33" fill="none" xmlns="http://www.w3.org/2000/svg">
<path d="M26 4.5H6C5.46975 4.50061 4.9614 4.71151 4.58646 5.08646C4.21151 5.4614 4.00061 5.96975 4 6.5V26.5C4.00061 27.0302 4.21151 27.5386 4.58646 27.9135C4.9614 28.2885 5.46975 28.4994 6 28.5H26C26.5302 28.4994 27.0386 28.2885 27.4135 27.9135C27.7885 27.5386 27.9994 27.0302 28 26.5V6.5C27.9994 5.96975 27.7885 5.4614 27.4135 5.08646C27.0386 4.71151 26.5302 4.50061 26 4.5ZM12 22.5001C12 22.7653 11.8946 23.0197 11.7071 23.2072C11.5196 23.3948 11.2652 23.5001 11 23.5001C10.7348 23.5001 10.4804 23.3948 10.2929 23.2072C10.1054 23.0197 10 22.7653 10 22.5001V14.5001C10 14.2349 10.1054 13.9805 10.2929 13.793C10.4804 13.6055 10.7348 13.5001 11 13.5001C11.2652 13.5001 11.5196 13.6055 11.7071 13.793C11.8946 13.9805 12 14.2349 12 14.5001V22.5001ZM11 12.0001C10.7033 12.0001 10.4133 11.9121 10.1666 11.7473C9.91997 11.5825 9.72771 11.3482 9.61418 11.0741C9.50065 10.8001 9.47094 10.4985 9.52882 10.2075C9.5867 9.91651 9.72956 9.64924 9.93934 9.43946C10.1491 9.22968 10.4164 9.08682 10.7074 9.02894C10.9983 8.97106 11.2999 9.00077 11.574 9.1143C11.8481 9.22783 12.0824 9.42009 12.2472 9.66676C12.412 9.91344 12.5 10.2034 12.5 10.5001C12.5 10.8979 12.342 11.2795 12.0607 11.5608C11.7794 11.8421 11.3978 12.0001 11 12.0001ZM23 22.5001C23 22.7653 22.8946 23.0197 22.7071 23.2072C22.5196 23.3948 22.2652 23.5001 22 23.5001C21.7348 23.5001 21.4804 23.3948 21.2929 23.2072C21.1054 23.0197 21 22.7653 21 22.5001V18.0001C21 17.3371 20.7366 16.7012 20.2678 16.2324C19.7989 15.7635 19.163 15.5001 18.5 15.5001C17.837 15.5001 17.2011 15.7635 16.7322 16.2324C16.2634 16.7012 16 17.3371 16 18.0001V22.5001C16 22.7653 15.8946 23.0197 15.7071 23.2072C15.5196 23.3948 15.2652 23.5001 15 23.5001C14.7348 23.5001 14.4804 23.3948 14.2929 23.2072C14.1054 23.0197 14 22.7653 14 22.5001V14.5001C13.9999 14.2543 14.0904 14.0171 14.2542 13.8338C14.418 13.6504 14.6435 13.5339 14.8878 13.5064C15.1321 13.4789 15.3779 13.5423 15.5784 13.6847C15.7788 13.827 15.9198 14.0381 15.9744 14.2778C16.6506 13.8182 17.4394 13.5517 18.2559 13.5069C19.0723 13.4621 19.8855 13.6407 20.608 14.0235C21.3305 14.4063 21.935 14.9788 22.3565 15.6795C22.7779 16.3801 23.0004 17.1825 23 18.0001V22.5001Z" fill="white"/>
</svg>
