<svg width="32" height="32" viewBox="0 0 32 32" fill="none" xmlns="http://www.w3.org/2000/svg">
<path d="M14.9992 13.3024L11.7492 7.67324C11.4183 7.09907 11.329 6.41703 11.5007 5.777C11.6725 5.13697 12.0914 4.59133 12.6653 4.25999C13.2392 3.92865 13.9212 3.83872 14.5613 4.00997C15.2015 4.18122 15.7475 4.59963 16.0793 5.17324L21.0793 13.8335" stroke="#EBEBEB" stroke-width="2" stroke-linecap="round" stroke-linejoin="round"/>
<path d="M11.169 16.6685L6.41899 8.44126C6.25451 8.15693 6.14768 7.84297 6.1046 7.51732C6.06152 7.19168 6.08304 6.86074 6.16792 6.54342C6.25281 6.22609 6.39939 5.92861 6.59931 5.66796C6.79922 5.40732 7.04853 5.18863 7.33301 5.02439C7.61748 4.86015 7.93153 4.75358 8.25721 4.71077C8.58289 4.66797 8.91381 4.68976 9.23106 4.77491C9.54832 4.86006 9.84568 5.00689 10.1062 5.20702C10.3666 5.40715 10.5851 5.65665 10.7491 5.94126L14.9991 13.3025" stroke="#EBEBEB" stroke-width="2" stroke-linecap="round" stroke-linejoin="round"/>
<path d="M19.2493 20.6635C18.5862 19.5151 18.4066 18.1503 18.7498 16.8694C19.093 15.5885 19.931 14.4964 21.0794 13.8334L19.8294 11.6683C19.6649 11.384 19.5581 11.07 19.515 10.7444C19.4719 10.4187 19.4935 10.0878 19.5783 9.77047C19.6632 9.45314 19.8098 9.15566 20.0097 8.89502C20.2096 8.63437 20.459 8.41568 20.7434 8.25144C21.0279 8.0872 21.3419 7.98063 21.6676 7.93782C21.9933 7.89502 22.3242 7.91681 22.6415 8.00196C22.9587 8.08711 23.2561 8.23395 23.5166 8.43408C23.777 8.63421 23.9955 8.8837 24.1595 9.16831L26.6595 13.4984C27.3165 14.6357 27.743 15.8913 27.9146 17.1935C28.0863 18.4956 27.9997 19.8188 27.6599 21.0875C27.3201 22.3562 26.7338 23.5455 25.9343 24.5875C25.1348 25.6296 24.1378 26.5039 23.0004 27.1606C21.863 27.8173 20.6073 28.2435 19.3051 28.4149C18.0029 28.5863 16.6797 28.4994 15.4111 28.1593C14.1425 27.8193 12.9533 27.2326 11.9115 26.4329C10.8696 25.6332 9.99547 24.636 9.33903 23.4984L4.58903 15.2712C4.25817 14.697 4.16881 14.015 4.34059 13.375C4.51237 12.7349 4.93124 12.1893 5.50513 11.8579C6.07903 11.5266 6.761 11.4367 7.40117 11.6079C8.04134 11.7792 8.58733 12.1976 8.91915 12.7712L11.1691 16.6683" stroke="#EBEBEB" stroke-width="2" stroke-linecap="round" stroke-linejoin="round"/>
<path d="M10.1368 30.0003C8.44183 28.8243 7.02895 27.2868 6 25.4988" stroke="#EBEBEB" stroke-width="2" stroke-linecap="round" stroke-linejoin="round"/>
<path d="M22 3.875C23.141 3.87485 24.2618 4.17519 25.2498 4.74581C26.2379 5.31643 27.0582 6.1372 27.6282 7.12554" stroke="#EBEBEB" stroke-width="2" stroke-linecap="round" stroke-linejoin="round"/>
</svg>
