<svg width="56" height="56" viewBox="0 0 56 56" fill="none" xmlns="http://www.w3.org/2000/svg">
<path d="M15.3068 5.6001H40.6934C46.0134 5.6001 50.4001 9.98676 50.4001 15.3068V40.6934C50.4001 46.0134 46.0134 50.4001 40.6934 50.4001H15.3068C9.98676 50.4001 5.6001 46.0134 5.6001 40.6934V15.3068C5.6001 9.98676 9.98676 5.6001 15.3068 5.6001Z" fill="#FFD02F"/>
<path fill-rule="evenodd" clip-rule="evenodd" d="M36.6802 11.2002H31.7335L35.8402 18.3869L26.8802 11.2002H21.9335L26.4135 19.9735L17.0802 11.2002H12.1335L17.0802 22.4002L12.1335 44.8002H17.0802L26.5069 20.8135L21.9335 44.8002H26.8802L35.9335 19.2269L31.8269 44.8002H36.7735L45.7335 16.8002L36.6802 11.2002Z" fill="#050038"/>
</svg>
