<svg width="201" height="56" viewBox="0 0 201 56" fill="none" xmlns="http://www.w3.org/2000/svg">
<path d="M4.6001 40.969H16.0938V39.7553H15.2307C13.5508 39.7553 13.1462 39.2997 13.1462 37.6345V22.5771C14.3175 20.6055 15.8934 19.3421 17.8778 19.3421C20.3707 19.3421 21.8965 21.1606 21.8965 24.5986V37.6383C21.8965 39.3074 21.4881 39.7591 19.8621 39.7591H18.9451V40.9728H30.1844V39.7591H29.3716C27.6915 39.7591 27.287 39.3036 27.287 37.6383V24.0396C27.287 23.584 27.287 23.1284 27.2369 22.6767C28.3543 20.6553 30.0342 19.3421 32.0185 19.3421C34.5116 19.3421 36.0374 21.1606 36.0374 24.5986V37.6383C36.0374 39.3074 35.6289 39.7591 34.0029 39.7591H33.0858V40.9728H44.3253V39.7591H43.5624C41.8324 39.7591 41.4277 39.3036 41.4277 37.6383V24.0396C41.4277 18.9363 38.5302 16.1071 34.3074 16.1071C31.1554 16.1071 28.4082 17.826 26.9325 21.2602C26.0694 17.9256 23.5264 16.1071 20.1665 16.1071C17.165 16.1071 14.5718 17.7227 13.1462 20.9577V16.712H4.6001V17.9256H5.61731C7.34734 17.9256 7.7519 18.3812 7.7519 20.0465V37.6345C7.7519 39.3036 7.34347 39.7553 5.61731 39.7553H4.6001V40.969ZM51.0874 12.6691C52.9176 12.6691 54.4434 11.1531 54.4434 9.33458C54.4434 7.51606 52.9176 6 51.0874 6C49.2572 6 47.7314 7.51606 47.7314 9.33458C47.7314 11.1531 49.2572 12.6691 51.0874 12.6691ZM45.3926 40.969H56.682V39.7553H55.9192C54.2391 39.7553 53.8345 39.2997 53.8345 37.6345V16.712H45.2885V17.9256H46.3056C48.0356 17.9256 48.4403 18.3812 48.4403 20.0465V37.6345C48.4403 39.3036 48.0318 39.7553 46.3056 39.7553H45.3887V40.969H45.3926ZM64.9238 26.7195H68.1796C67.3665 26.2142 67.0623 25.5059 66.6538 24.1928L65.4322 19.6943C64.8736 17.6729 64.4151 16.712 62.1765 16.712H57.499V17.9256H58.1617C59.5332 17.9256 59.6874 18.4309 60.0959 19.947L61.1632 23.8903C61.7219 25.8122 62.5888 26.7195 64.9277 26.7195H64.9238ZM72.4527 26.7195H75.7085C78.0473 26.7195 78.8602 25.8083 79.4229 23.8903L80.4902 19.947C80.8985 18.4309 81.0989 17.9256 82.4245 17.9256H83.0872V16.712H78.4596C76.1708 16.712 75.7123 17.6231 75.2036 19.6943L73.9823 24.1928C73.5738 25.5557 73.2655 26.2142 72.4527 26.7195ZM68.1796 30.9653H72.4527V26.7195H68.1796V30.9653ZM57.499 40.9728H62.1765C64.4151 40.9728 64.8736 40.0119 65.4322 37.9905L66.6538 33.4921C67.0623 32.1788 67.3665 31.4707 68.1796 30.9653H64.9238C62.585 30.9653 61.718 31.8765 61.1594 33.7946L60.0921 37.7379C59.6836 39.2539 59.5332 39.7591 58.1578 39.7591H57.4951V40.9728H57.499ZM78.4519 40.9728H83.0795V39.7591H82.4168C81.095 39.7591 80.8908 39.2539 80.4825 37.7379L79.4152 33.7946C78.8563 31.8727 78.0435 30.9653 75.7008 30.9653H72.4527C73.2655 31.4707 73.5623 32.1291 73.9708 33.4921L75.1921 37.9905C75.7008 40.0616 76.1592 40.9728 78.4481 40.9728H78.4519ZM83.7422 51.08H95.5403V49.8662H94.3187C92.6927 49.8662 92.2843 49.4107 92.2843 47.7452V38.0939C93.7601 40.2683 96.253 41.5816 99.2007 41.5816C104.745 41.5816 109.169 36.7309 109.169 28.3428C109.169 20.7625 105 16.1147 99.6053 16.1147C96.4533 16.1147 93.8064 17.9332 92.2804 21.1683V16.7196H83.7345V17.9332H84.7516C86.4316 17.9332 86.8862 18.3888 86.8862 20.0542V47.7414C86.8862 49.4107 86.4277 49.8624 84.7516 49.8624H83.7345V51.0762L83.7422 51.08ZM97.6788 19.2426C100.985 19.2426 103.682 22.3245 103.682 28.4385C103.682 35.1077 101.189 38.7485 97.7828 38.7485C95.5941 38.7485 93.6637 37.5846 92.2881 35.5632V23.0289C93.6099 20.5519 95.4939 19.2388 97.6788 19.2388V19.2426ZM117.21 41.4783C120.516 41.4783 123.159 39.9124 125.143 36.3749V36.93C125.143 39.962 127.077 41.2753 130.279 41.2753C131.247 41.2753 132.468 41.1758 133.281 40.9229V39.6598C132.873 39.7591 132.568 39.8128 132.264 39.8128C130.992 39.8128 130.584 39.0548 130.584 37.841V24.901C130.584 18.9363 127.228 16.1071 121.583 16.1071C117.819 16.1071 114.158 17.826 111.819 19.6446L112.632 21.0611C115.075 19.3919 117.464 18.4348 120.057 18.4348C123.413 18.4348 125.143 20.2533 125.143 24.499V25.6093L118.886 28.0365C113.191 30.3603 111.103 32.535 111.103 35.8198C111.103 39.1045 113.441 41.4783 117.206 41.4783H117.21ZM116.447 34.5027C116.447 31.9761 117.923 30.1573 120.924 28.8443L125.147 27.0258V34.9086C123.571 37.083 121.741 38.3464 119.757 38.3464C117.772 38.3464 116.451 36.9835 116.451 34.5065L116.447 34.5027ZM134.298 40.9728H145.896V39.7591H144.929C143.249 39.7591 142.844 39.3036 142.844 37.6383V22.6269C144.016 20.6055 145.742 19.3421 147.776 19.3421C150.42 19.3421 152.099 21.1606 152.099 24.5986V37.6383C152.099 39.3074 151.691 39.7591 150.065 39.7591H149.098V40.9728H160.642V39.7591H159.624C157.894 39.7591 157.49 39.3036 157.49 37.6383V24.0396C157.49 18.9363 154.438 16.1071 150.115 16.1071C146.963 16.1071 144.316 17.7227 142.84 20.9577V16.712H134.294V17.9256H135.312C137.042 17.9256 137.446 18.3812 137.446 20.0465V37.6345C137.446 39.3036 137.038 39.7553 135.312 39.7553H134.294V40.969L134.298 40.9728ZM173.865 41.5778C177.221 41.5778 180.377 40.0616 182.666 38.2431L181.903 37.1329C179.868 38.5993 177.58 39.2539 175.445 39.2539C170.259 39.2539 167.207 35.6169 167.207 28.5418V27.6307H183.279C183.178 20.8084 178.955 16.1607 172.802 16.1607C166.649 16.1607 161.713 21.6698 161.713 28.9477C161.713 36.9338 166.29 41.5816 173.869 41.5816L173.865 41.5778ZM172.848 17.4202C175.9 17.4202 177.78 20.705 178.088 26.2639H167.307C167.766 20.6553 169.901 17.4202 172.852 17.4202H172.848ZM184.392 40.969H196.19V39.7553H195.019C193.339 39.7553 192.934 39.2997 192.934 37.6345V6.60489H184.388V7.81851H185.405C187.085 7.81851 187.54 8.27409 187.54 9.93946V37.6345C187.54 39.3036 187.081 39.7553 185.405 39.7553H184.388V40.969H184.392Z" fill="white"/>
</svg>
