<svg width="197" height="32" viewBox="0 0 197 32" fill="none" xmlns="http://www.w3.org/2000/svg">
<g clip-path="url(#clip0_8145_56339)">
<path d="M126.984 19.3374C126.984 16.3825 129.054 14.1953 132.079 14.1953C135.104 14.1953 137.153 16.2651 137.153 19.3374C137.153 22.4098 134.986 24.4864 132.079 24.4864C129.172 24.4864 126.984 22.2991 126.984 19.3374ZM132.079 22.8881C133.941 22.8881 135.374 21.4004 135.374 19.3374C135.374 17.2745 133.941 15.7936 132.079 15.7936C130.113 15.7936 128.763 17.3715 128.763 19.3374C128.763 21.3034 130.113 22.8881 132.079 22.8881Z" fill="#C8D2DF"/>
<path d="M142.2 17.3555C144.103 17.3555 145.537 18.8567 145.537 20.947C145.537 23.0372 144.103 24.484 142.187 24.484C141.246 24.484 140.505 24.1384 140 23.5223H139.979V27.1767H138.395V17.4593H139.979V18.2967H140.006C140.532 17.6806 141.286 17.3555 142.2 17.3555ZM143.925 20.9538C143.925 19.6244 143.038 18.7938 141.932 18.7938C140.742 18.7938 139.918 19.7282 139.918 20.9538C139.918 22.1793 140.812 23.044 141.938 23.044C143.065 23.044 143.925 22.1793 143.925 20.9538Z" fill="#C8D2DF"/>
<path d="M148.84 24.4857C147.725 24.4857 146.777 24.1197 146.043 23.4746L146.846 22.2848C147.4 22.8312 147.988 23.1019 148.84 23.1019C149.449 23.1019 149.808 22.8244 149.808 22.4227C149.808 22.0636 149.343 21.8899 148.438 21.5784C147.303 21.1904 146.327 20.6712 146.327 19.3146C146.327 18.1861 147.352 17.3555 148.763 17.3555C149.641 17.3555 150.438 17.5972 151.214 18.2201L150.417 19.4661C149.857 18.947 149.226 18.7257 148.68 18.7257C148.368 18.7257 147.926 18.8993 147.926 19.3214C147.926 19.667 148.361 19.9036 149.027 20.1657C150.494 20.7478 151.422 21.0099 151.422 22.387C151.422 23.5495 150.598 24.484 148.84 24.484V24.4857Z" fill="#C8D2DF"/>
<path d="M157.245 24.4637C154.504 24.4637 152.164 22.6782 152.164 19.3761C152.164 16.5029 153.984 14.1914 157.245 14.1914C158.622 14.1914 160.11 14.7667 161.211 16.1233L159.951 17.1889C159.301 16.3854 158.324 15.8118 157.245 15.8118C155.293 15.8118 153.95 17.2382 153.95 19.3761C153.95 21.514 155.327 22.8501 157.245 22.8501C158.38 22.8501 159.315 22.2748 159.951 21.4799L161.211 22.5523C160.346 23.6382 159.017 24.462 157.245 24.462V24.4637Z" fill="#C8D2DF"/>
<path d="M168.452 20.838C168.452 21.0797 168.431 21.3436 168.411 21.4678H163.373C163.58 22.4499 164.327 23.0457 165.345 23.0457C166.149 23.0457 166.716 22.6712 167.07 22.2287L168.178 23.1767C167.589 23.9308 166.62 24.484 165.264 24.484C163.25 24.484 161.727 23.0729 161.727 20.9129C161.727 18.7529 163.173 17.3555 165.097 17.3555C167.139 17.3555 168.453 18.8227 168.453 20.8363L168.452 20.838ZM165.177 18.7972C164.312 18.7972 163.626 19.2891 163.398 20.1878H166.858C166.658 19.3504 166.082 18.7972 165.177 18.7972Z" fill="#C8D2DF"/>
<path d="M173.451 17.3555C174.967 17.3555 175.99 18.227 175.99 20.3036V24.3801H174.406V20.7121C174.406 19.2516 173.859 18.7955 172.904 18.7955C171.832 18.7955 171.112 19.5427 171.112 20.8993V24.3733H169.527V17.4593H171.112V18.4074H171.132C171.721 17.7214 172.559 17.3555 173.451 17.3555Z" fill="#C8D2DF"/>
<path d="M179.432 24.4844C178.241 24.4844 177.5 23.7304 177.5 22.1866V18.8096H176.656V17.4598H177.5V15.1619L179.085 14.9883V17.4598H181.121V18.8096H179.085V22.0419C179.085 22.7483 179.306 23.0036 179.749 23.0036C180.02 23.0036 180.406 22.8998 180.774 22.7057L181.189 24.0759C180.774 24.2972 180.338 24.4844 179.431 24.4844H179.432Z" fill="#C8D2DF"/>
<path d="M185.731 17.3555C185.801 17.3555 185.869 17.3555 185.925 17.3623V19.1274C185.745 19.1138 185.557 19.107 185.447 19.107C184.242 19.107 183.557 19.9716 183.557 21.0933V24.3733H181.973V17.4593H183.557V18.4976H183.578C184.117 17.764 184.887 17.3555 185.731 17.3555Z" fill="#C8D2DF"/>
<path d="M193.154 17.461V24.375H191.637V23.4474H191.617C191.112 24.1112 190.371 24.4857 189.416 24.4857C187.5 24.4857 186.066 23.0882 186.066 20.9487C186.066 18.8091 187.5 17.3555 189.403 17.3555C190.281 17.3555 191.023 17.6738 191.542 18.2899H191.569V17.4593H193.154V17.461ZM189.666 23.0457C190.739 23.0457 191.632 22.2082 191.632 20.9555C191.632 19.7027 190.809 18.7955 189.673 18.7955C188.538 18.7955 187.68 19.6261 187.68 20.9555C187.68 22.181 188.497 23.0457 189.666 23.0457Z" fill="#C8D2DF"/>
<path d="M194.691 13.9375H196.276V24.3749H194.691V13.9375Z" fill="#C8D2DF"/>
<path d="M0 24.3883V12.0087L2.81362 11.4453V24.3883H0Z" fill="white"/>
<path d="M124.999 3.81106C124.999 5.9166 123.292 7.62213 121.188 7.62213C119.084 7.62213 117.375 5.9166 117.375 3.81106C117.375 1.70553 119.082 0 121.188 0C123.293 0 124.999 1.70553 124.999 3.81106Z" fill="#E12A27"/>
<path d="M105.093 10.6554C103.754 10.8767 102.494 11.0911 102.574 11.4622C102.656 11.8332 108.552 11.9286 111.444 13.9405C111.738 14.1447 112.062 14.4358 112.159 14.7218C113.679 19.1677 103.621 31.6937 104.618 32.012C106.104 32.4869 117.025 20.5243 120.395 13.8315C120.63 13.3686 121.548 11.183 121.025 10.4801C120.751 10.109 119.832 9.82984 118.543 9.70048C117.776 9.62218 116.938 9.58984 116.062 9.58984C112.252 9.58984 107.718 10.2264 105.091 10.6571" fill="#E12A27"/>
<path d="M40.9291 16.7917L41.3512 14.5398C41.3512 14.5398 38.0916 13.5509 35.4414 15.3841V24.3883H38.255V17.0726C39.3801 16.2283 40.9274 16.7917 40.9274 16.7917" fill="white"/>
<path d="M16.6501 11.9736L19.4638 11.4766V14.4042H22.2484V16.7464H19.4638V20.2408C19.4638 20.8332 19.5676 21.3046 19.7752 21.657C19.9846 22.0093 20.4016 22.1846 21.0314 22.1846C21.3344 22.1846 21.6442 22.1574 21.9659 22.0995C22.2876 22.0434 22.5804 21.9634 22.8442 21.8629L23.2408 24.0536C22.9004 24.1915 22.5225 24.3123 22.1072 24.4127C21.6918 24.5132 21.1812 24.5642 20.5769 24.5642C19.8093 24.5642 19.1744 24.4604 18.6706 24.2527C18.1667 24.0451 17.7633 23.7557 17.4604 23.3846C17.1574 23.0136 16.948 22.5625 16.8272 22.0349C16.708 21.5055 16.6484 20.92 16.6484 20.2783V11.9736H16.6501Z" fill="white"/>
<path d="M45.5225 22.3723C46.0383 22.3723 46.4042 22.323 46.617 22.2208C46.8315 22.1204 46.9387 21.9247 46.9387 21.6353C46.9387 21.4089 46.8008 21.2098 46.5234 21.0396C46.2459 20.8694 45.8238 20.6787 45.2587 20.4642C44.8178 20.3008 44.4178 20.1306 44.0604 19.9553C43.7013 19.7783 43.3966 19.5672 43.1447 19.3221C42.8927 19.077 42.697 18.7842 42.5591 18.4438C42.4196 18.1034 42.3498 17.6949 42.3498 17.2166C42.3498 16.2855 42.697 15.5485 43.3898 15.0072C44.0825 14.4659 45.0323 14.1953 46.2408 14.1953C46.8451 14.1953 47.4238 14.2498 47.9787 14.357C48.5336 14.4642 48.9727 14.58 49.3013 14.706L48.811 16.8966C48.4825 16.7842 48.1285 16.6838 47.7438 16.5936C47.3591 16.5051 46.9285 16.4608 46.4502 16.4608C45.5685 16.4608 45.1293 16.706 45.1293 17.1979C45.1293 17.3119 45.1481 17.4123 45.1855 17.5008C45.2247 17.5894 45.2996 17.6745 45.4119 17.7562C45.5259 17.8379 45.6791 17.9264 45.8749 18.0217C46.0706 18.117 46.3191 18.2225 46.6204 18.3366C47.2366 18.5647 47.7472 18.7894 48.1506 19.0123C48.554 19.2336 48.8723 19.4736 49.1038 19.7323C49.3353 19.9894 49.5004 20.2753 49.594 20.5902C49.6876 20.9034 49.7353 21.2677 49.7353 21.683C49.7353 22.6634 49.3676 23.4038 48.6306 23.9059C47.8936 24.4081 46.8519 24.66 45.5038 24.66C44.6221 24.66 43.8902 24.5834 43.3047 24.4336C42.7191 24.2821 42.3123 24.1562 42.0859 24.0557L42.5591 21.7715C43.0374 21.9604 43.5276 22.1085 44.0315 22.2157C44.5353 22.323 45.0323 22.3757 45.5242 22.3757" fill="white"/>
<path d="M58.4068 18.6863C58.1549 19.6429 57.8877 20.5944 57.6034 21.5374C57.3209 22.4821 57.0213 23.4318 56.7064 24.3884H54.5158C54.2877 23.8591 54.0426 23.2293 53.777 22.4991C53.5115 21.7689 53.2375 20.9723 52.9532 20.1093C52.669 19.2463 52.3779 18.334 52.0817 17.3706C51.7856 16.4072 51.4979 15.4353 51.2188 14.4531H54.1839C54.286 14.9059 54.3966 15.4012 54.5158 15.9357C54.6366 16.4701 54.7626 17.0216 54.8953 17.5884C55.0281 18.1553 55.1677 18.7255 55.3141 19.2974C55.4605 19.871 55.6085 20.4208 55.7617 20.9501C55.9251 20.397 56.0851 19.8301 56.2434 19.2514C56.4017 18.6727 56.5515 18.1025 56.6962 17.5425C56.8409 16.9825 56.9787 16.4412 57.1115 15.9187C57.2443 15.3961 57.36 14.9076 57.4605 14.4548H59.5013C59.6017 14.9076 59.7158 15.3961 59.84 15.9187C59.966 16.4412 60.0988 16.9825 60.2366 17.5425C60.3745 18.1025 60.5192 18.6727 60.6707 19.2514C60.8222 19.8301 60.9787 20.397 61.1422 20.9501C61.2936 20.4208 61.4468 19.871 61.5983 19.2974C61.7498 18.7238 61.8928 18.1553 62.0256 17.5884C62.1583 17.0216 62.2843 16.4718 62.4051 15.9357C62.526 15.4012 62.6366 14.9059 62.7371 14.4531H65.6647C65.3856 15.4353 65.0996 16.4072 64.8017 17.3706C64.5056 18.334 64.2145 19.2463 63.9302 20.1093C63.646 20.9723 63.3685 21.7689 63.0962 22.4991C62.8256 23.2293 62.5753 23.8591 62.349 24.3884H60.1583C59.8434 23.4318 59.5336 22.4804 59.2324 21.5374C58.9311 20.5927 58.6536 19.6429 58.4017 18.6863" fill="white"/>
<path d="M70.4699 14.457H67.6562V24.3906H70.4699V14.457Z" fill="white"/>
<path d="M72.7048 11.9792L75.5184 11.4805V14.4592H78.3014V16.8013H75.5184V20.2958C75.5184 20.8881 75.6223 21.3613 75.8299 21.712C76.0393 22.0643 76.4563 22.2413 77.0861 22.2413C77.3891 22.2413 77.6989 22.2124 78.0206 22.1562C78.3423 22.0983 78.635 22.02 78.8989 21.9196L79.2955 24.1103C78.9567 24.2498 78.5772 24.369 78.1618 24.4694C77.7465 24.5698 77.2359 24.6209 76.6316 24.6209C75.8623 24.6209 75.2274 24.5171 74.7235 24.3094C74.2197 24.1017 73.8163 23.8124 73.515 23.4413C73.2121 23.0703 73.0027 22.6192 72.8818 22.0915C72.7627 21.5639 72.7031 20.9766 72.7031 20.3349V11.9809L72.7048 11.9792Z" fill="white"/>
<path d="M80.2925 19.426C80.2925 18.7077 80.4082 18.0319 80.6414 17.3953C80.8746 16.7604 81.2099 16.2055 81.6508 15.734C82.0916 15.2608 82.6261 14.8881 83.2559 14.6106C83.8857 14.3332 84.6039 14.1953 85.4091 14.1953C85.9367 14.1953 86.4235 14.243 86.8627 14.3366C87.3035 14.4302 87.7325 14.5664 88.1461 14.7434L87.5605 16.9902C87.2967 16.8898 87.0074 16.8013 86.6925 16.7264C86.3776 16.6498 86.0252 16.6123 85.6354 16.6123C84.8048 16.6123 84.1835 16.8711 83.775 17.3868C83.3665 17.9025 83.1623 18.5834 83.1623 19.426C83.1623 20.3196 83.3546 21.0123 83.7376 21.5042C84.1223 21.9945 84.7929 22.2413 85.7495 22.2413C86.0899 22.2413 86.4542 22.2106 86.8457 22.1477C87.2354 22.0847 87.5946 21.9842 87.9214 21.8447L88.318 24.1494C87.9895 24.2872 87.581 24.4064 87.0908 24.5085C86.6005 24.6089 86.0576 24.66 85.4652 24.66C84.5597 24.66 83.7784 24.5238 83.1231 24.2532C82.4678 23.9825 81.9299 23.6149 81.5078 23.1485C81.0857 22.6821 80.7776 22.1323 80.5818 21.4957C80.3878 20.8591 80.2891 20.1715 80.2891 19.4277" fill="white"/>
<path d="M90.1367 24.3906V11.9736L92.9503 11.4766V14.4927C93.1393 14.4298 93.381 14.3702 93.6771 14.314C93.9733 14.2578 94.2593 14.2289 94.535 14.2289C95.3418 14.2289 96.0108 14.3395 96.5469 14.5591C97.0814 14.7804 97.5103 15.0919 97.8303 15.4936C98.152 15.8953 98.3767 16.3753 98.5095 16.9285C98.6423 17.4834 98.7086 18.0995 98.7086 18.7787V24.3872H95.895V19.1191C95.895 18.2119 95.7776 17.5702 95.5461 17.1923C95.3146 16.8144 94.8822 16.6255 94.2525 16.6255C94.0005 16.6255 93.764 16.6476 93.5444 16.6919C93.3248 16.7361 93.1256 16.7838 92.9503 16.8332V24.3872H90.1367V24.3906Z" fill="white"/>
<path d="M5.30198 24.3911L5.29688 15.3919C5.29688 15.3919 6.70964 14.2617 9.80581 14.2617C12.6194 14.2617 14.1667 15.6677 14.1667 18.7638V24.3911H11.353V18.7638C11.353 16.7945 10.3675 16.6532 9.52326 16.6532C8.679 16.6532 8.1156 17.0753 8.1156 17.0753V24.3911H5.30198Z" fill="white"/>
<path d="M28.8795 16.1981C27.0497 16.1981 26.9101 18.1675 26.9101 18.1675H30.8505C30.8505 18.1675 30.7093 16.1981 28.8812 16.1981M33.2403 20.1386H26.9084C26.9084 20.1386 27.0497 22.2492 29.8633 22.2492C31.2693 22.2492 32.6769 21.8271 32.6769 21.8271L32.9578 24.079C32.9578 24.079 31.5501 24.6424 29.5808 24.6424C26.7671 24.6424 24.2344 23.2347 24.2344 19.296C24.2344 16.2015 26.2037 14.2305 29.0173 14.2305C33.2386 14.2305 33.5195 18.4517 33.2386 20.1403" fill="white"/>
</g>
<defs>
<clipPath id="clip0_8145_56339">
<rect width="196.255" height="32" fill="white"/>
</clipPath>
</defs>
</svg>
