<svg width="32" height="33" viewBox="0 0 32 33" fill="none" xmlns="http://www.w3.org/2000/svg">
<path d="M25 4.50073H23V3.50073C23 3.23552 22.8946 2.98116 22.7071 2.79363C22.5196 2.60609 22.2652 2.50073 22 2.50073C21.7348 2.50073 21.4804 2.60609 21.2929 2.79363C21.1054 2.98116 21 3.23552 21 3.50073V4.50073H17V3.50073C17 3.23552 16.8946 2.98116 16.7071 2.79363C16.5196 2.60609 16.2652 2.50073 16 2.50073C15.7348 2.50073 15.4804 2.60609 15.2929 2.79363C15.1054 2.98116 15 3.23552 15 3.50073V4.50073H11V3.50073C11 3.23552 10.8946 2.98116 10.7071 2.79363C10.5196 2.60609 10.2652 2.50073 10 2.50073C9.73478 2.50073 9.48043 2.60609 9.29289 2.79363C9.10536 2.98116 9 3.23552 9 3.50073V4.50073H7C6.46975 4.50134 5.9614 4.71225 5.58646 5.08719C5.21151 5.46213 5.00061 5.97049 5 6.50073V25.5007C5.00121 26.5612 5.42303 27.5779 6.17291 28.3278C6.9228 29.0777 7.93951 29.4995 9 29.5007H23C24.0605 29.4995 25.0772 29.0777 25.8271 28.3278C26.577 27.5779 26.9988 26.5612 27 25.5007V6.50073C26.9994 5.97049 26.7885 5.46213 26.4135 5.08719C26.0386 4.71225 25.5302 4.50134 25 4.50073ZM20 21.5007H12C11.7348 21.5007 11.4804 21.3954 11.2929 21.2078C11.1054 21.0203 11 20.7659 11 20.5007C11 20.2355 11.1054 19.9812 11.2929 19.7936C11.4804 19.6061 11.7348 19.5007 12 19.5007H20C20.2652 19.5007 20.5196 19.6061 20.7071 19.7936C20.8946 19.9812 21 20.2355 21 20.5007C21 20.7659 20.8946 21.0203 20.7071 21.2078C20.5196 21.3954 20.2652 21.5007 20 21.5007ZM20 17.5007H12C11.7348 17.5007 11.4804 17.3954 11.2929 17.2078C11.1054 17.0203 11 16.7659 11 16.5007C11 16.2355 11.1054 15.9812 11.2929 15.7936C11.4804 15.6061 11.7348 15.5007 12 15.5007H20C20.2652 15.5007 20.5196 15.6061 20.7071 15.7936C20.8946 15.9812 21 16.2355 21 16.5007C21 16.7659 20.8946 17.0203 20.7071 17.2078C20.5196 17.3954 20.2652 17.5007 20 17.5007Z" fill="white"/>
</svg>
