<svg width="56" height="56" viewBox="0 0 56 56" fill="none" xmlns="http://www.w3.org/2000/svg">
<path fill-rule="evenodd" clip-rule="evenodd" d="M7 8.37193C7.00196 8.73767 7.07593 9.09944 7.2177 9.4366C7.35948 9.77375 7.56627 10.0797 7.82627 10.3369C8.08628 10.5941 8.39441 10.7976 8.73306 10.9358C9.07171 11.0739 9.43426 11.144 9.8 11.1421H33.0064C40.6672 10.6231 45.3637 20.3933 39.5397 25.5714C37.8299 27.0349 35.6521 27.7653 33.0064 27.7629H22.9264C22.5538 27.7492 22.1823 27.8108 21.834 27.9439C21.4858 28.0771 21.168 28.279 20.8995 28.5378C20.6311 28.7965 20.4176 29.1068 20.2718 29.4499C20.1259 29.793 20.0508 30.162 20.0508 30.5349C20.0508 30.9077 20.1259 31.2767 20.2718 31.6198C20.4176 31.963 20.6311 32.2732 20.8995 32.5319C21.168 32.7907 21.4858 32.9927 21.834 33.1258C22.1823 33.259 22.5538 33.3205 22.9264 33.3069C23.2773 33.3069 34.1525 33.3069 34.0629 33.3069L44.0944 49.2333C44.3626 49.6843 44.746 50.0559 45.2053 50.3098C45.6645 50.5637 46.1831 50.6908 46.7077 50.6781C49.2651 50.7639 50.4411 48.1095 49.0411 46.0599L40.1184 31.8733C54.0437 25.3362 48.16 5.01566 32.9989 5.61299H9.8C9.06357 5.60999 8.35585 5.8984 7.83128 6.41528C7.30671 6.93215 7.00788 7.63554 7 8.37193Z" fill="white"/>
</svg>
