<svg width="64" height="64" viewBox="0 0 64 64" fill="none" xmlns="http://www.w3.org/2000/svg">
<rect width="64" height="64" rx="32" fill="white"/>
<path d="M47.291 28.0649C46.7015 27.4503 46.0921 26.8149 45.8618 26.2581C45.6502 25.7466 45.6374 24.8995 45.625 24.0801C45.602 22.5553 45.5759 20.8271 44.3744 19.6256C43.1729 18.4241 41.4447 18.398 39.9199 18.375C39.1005 18.3626 38.2534 18.3498 37.7419 18.1382C37.1852 17.9079 36.5497 17.2985 35.9351 16.709C34.8555 15.6736 33.6316 14.5 32 14.5C30.3684 14.5 29.1446 15.6736 28.0649 16.709C27.4503 17.2985 26.8149 17.9079 26.2581 18.1382C25.7466 18.3498 24.8995 18.3626 24.0801 18.375C22.5553 18.398 20.8271 18.4241 19.6256 19.6256C18.4241 20.8271 18.398 22.5553 18.375 24.0801C18.3626 24.8995 18.3498 25.7466 18.1382 26.2581C17.9079 26.8148 17.2985 27.4503 16.709 28.0649C15.6736 29.1445 14.5 30.3684 14.5 32C14.5 33.6316 15.6736 34.8554 16.709 35.9351C17.2985 36.5497 17.9079 37.1851 18.1382 37.7419C18.3498 38.2534 18.3626 39.1005 18.375 39.9199C18.398 41.4447 18.4241 43.1729 19.6256 44.3744C20.8271 45.5759 22.5553 45.602 24.0801 45.625C24.8995 45.6374 25.7466 45.6502 26.2581 45.8618C26.8148 46.0921 27.4503 46.7015 28.0649 47.291C29.1445 48.3264 30.3684 49.5 32 49.5C33.6316 49.5 34.8554 48.3264 35.9351 47.291C36.5497 46.7015 37.1851 46.0921 37.7419 45.8618C38.2534 45.6502 39.1005 45.6374 39.9199 45.625C41.4447 45.602 43.1729 45.5759 44.3744 44.3744C45.5759 43.1729 45.602 41.4447 45.625 39.9199C45.6374 39.1005 45.6502 38.2534 45.8618 37.7419C46.0921 37.1852 46.7015 36.5497 47.291 35.9351C48.3264 34.8555 49.5 33.6316 49.5 32C49.5 30.3684 48.3264 29.1446 47.291 28.0649ZM39.738 29.1542L30.5713 37.9042C30.3388 38.1262 30.0297 38.25 29.7083 38.25C29.3868 38.25 29.0778 38.1262 28.8452 37.9042L24.262 33.5292C24.1431 33.4159 24.0478 33.2803 23.9814 33.1301C23.915 32.98 23.8789 32.8182 23.875 32.654C23.8712 32.4899 23.8997 32.3266 23.959 32.1735C24.0182 32.0204 24.1071 31.8804 24.2204 31.7616C24.3338 31.6429 24.4694 31.5476 24.6196 31.4813C24.7698 31.4149 24.9316 31.3788 25.0958 31.375C25.2599 31.3712 25.4232 31.3998 25.5763 31.4591C25.7294 31.5185 25.8693 31.6074 25.988 31.7208L29.7083 35.2719L38.012 27.3458C38.1307 27.2324 38.2706 27.1435 38.4237 27.0841C38.5768 27.0248 38.7401 26.9962 38.9042 27C39.0684 27.0038 39.2302 27.0399 39.3804 27.1063C39.5305 27.1726 39.6662 27.2679 39.7796 27.3866C39.8929 27.5054 39.9818 27.6454 40.041 27.7985C40.1003 27.9516 40.1288 28.1149 40.125 28.279C40.1211 28.4432 40.085 28.605 40.0186 28.7551C39.9522 28.9053 39.8569 29.0409 39.738 29.1542V29.1542Z" fill="#49BA65"/>
</svg>
