<svg width="56" height="56" viewBox="0 0 56 56" fill="none" xmlns="http://www.w3.org/2000/svg">
<g clip-path="url(#clip0_173_832)">
<path d="M13.5961 7.07436L27.5411 5.6001L41.486 7.07436L52.2821 21.5672L27.5411 50.3778L2.80005 21.5672L13.5961 7.07436Z" fill="#FDB300"/>
<path d="M12.8214 21.5674L27.5411 50.3781L2.80005 21.5674H12.8214Z" fill="#EA6C00"/>
<path d="M42.2606 21.5674L27.5409 50.3781L52.282 21.5674H42.2606Z" fill="#EA6C00"/>
<path d="M12.8213 21.5674H42.2607L27.541 50.3781L12.8213 21.5674Z" fill="#FDAD00"/>
<path d="M27.541 5.6001L13.596 7.07434L12.8213 21.5671L27.541 5.6001Z" fill="#FDD231"/>
<path d="M27.541 5.6001L41.4861 7.07434L42.2607 21.5671L27.541 5.6001Z" fill="#FDD231"/>
<path d="M52.2822 21.567L41.4861 7.07422L42.2609 21.567H52.2822Z" fill="#FDAD00"/>
<path d="M2.80005 21.567L13.5961 7.07422L12.8214 21.567H2.80005Z" fill="#FDAD00"/>
<path d="M27.541 5.6001L12.8213 21.5671H42.2607L27.541 5.6001Z" fill="#FEEEB7"/>
</g>
<defs>
<clipPath id="clip0_173_832">
<rect width="49.582" height="44.8" fill="white" transform="translate(2.80005 5.6001)"/>
</clipPath>
</defs>
</svg>
