<svg width="279" height="56" viewBox="0 0 279 56" fill="none" xmlns="http://www.w3.org/2000/svg">
<path fill-rule="evenodd" clip-rule="evenodd" d="M77.0341 5.76953L54.2403 50.3287H32.8306L42.3698 31.8614H41.9418C34.0721 42.0773 22.3303 48.8025 5.6001 50.3287V32.1171C5.6001 32.1171 16.3028 31.485 22.5946 24.8699H5.6001V5.76988H24.7001V21.4794L25.1288 21.4776L32.9338 5.76988H47.3787V21.3798L47.8074 21.3791L55.9051 5.76953H77.0341Z" fill="#146EF5"/>
<path d="M201.329 45.4102H207.48V10.1016H201.329V45.4102Z" fill="white"/>
<path fill-rule="evenodd" clip-rule="evenodd" d="M167.418 45.0495C168.755 45.6054 170.114 45.8831 171.496 45.8831C173.779 45.8831 175.822 45.3275 177.625 44.2159C179.427 43.1043 180.824 41.5719 181.816 39.6193C182.808 37.6513 183.303 35.4207 183.303 32.927C183.303 30.4333 182.792 28.2027 181.771 26.2348C180.749 24.267 179.33 22.7423 177.512 21.6607C175.695 20.5641 173.629 20.0233 171.316 20.0384C169.844 20.0384 168.432 20.3238 167.08 20.8946C165.728 21.4654 164.601 22.2766 163.7 23.3281C163.63 23.4082 163.563 23.4891 163.497 23.5707V10.124H157.323V45.4101H163.452L163.44 42.1137C163.598 42.308 163.768 42.4979 163.948 42.6835C164.924 43.6902 166.081 44.4787 167.418 45.0495ZM173.727 39.3488C172.72 39.9646 171.571 40.2727 170.279 40.2727C169.002 40.2727 167.831 39.9572 166.764 39.3262C165.698 38.6802 164.849 37.8016 164.218 36.69C163.602 35.5784 163.294 34.3166 163.294 32.9045C163.279 31.4924 163.58 30.2306 164.195 29.119C164.826 27.9924 165.675 27.1211 166.742 26.5052C167.808 25.8743 168.987 25.5664 170.279 25.5814C171.571 25.5664 172.72 25.8668 173.727 26.4827C174.748 27.0835 175.529 27.9473 176.07 29.0739C176.626 30.1855 176.904 31.4625 176.904 32.9045C176.904 34.3465 176.626 35.6234 176.07 36.735C175.529 37.8466 174.748 38.7179 173.727 39.3488Z" fill="white"/>
<path d="M85.9458 12.2422H92.9759L99.2648 35.2089L105.955 12.2422H111.813L119.069 34.7481L125.107 12.2422H131.552L122.043 45.4102H115.982L108.604 23.4237L101.831 45.4102H95.7023L85.9458 12.2422Z" fill="white"/>
<path fill-rule="evenodd" clip-rule="evenodd" d="M141.933 45.9962C139.485 46.011 137.277 45.4702 135.309 44.3737C133.356 43.2621 131.816 41.7223 130.689 39.7546C129.578 37.7866 129.022 35.5409 129.022 33.0173C129.022 30.5689 129.593 28.353 130.735 26.3702C131.876 24.3873 133.424 22.8401 135.376 21.7285C137.329 20.6169 139.507 20.061 141.911 20.061C144.615 20.061 146.981 20.6619 149.008 21.8637C151.051 23.0654 152.576 24.7704 153.583 26.9786C154.604 29.1717 154.972 31.6879 154.687 34.5269H135.386C135.44 35.658 135.722 36.6872 136.233 37.6138C136.803 38.6353 137.6 39.4316 138.621 40.0024C139.642 40.5731 140.784 40.8585 142.046 40.8585C143.007 40.8437 143.901 40.6783 144.727 40.363C145.553 40.0326 146.252 39.5893 146.823 39.0336C147.409 38.4777 147.822 37.8468 148.062 37.1408H154.506C154.116 38.8682 153.335 40.408 152.163 41.76C150.991 43.0968 149.519 44.1408 147.747 44.892C145.974 45.6429 144.036 46.011 141.933 45.9962ZM136.255 28.3305C135.895 28.9583 135.646 29.6343 135.507 30.3585H148.301C148.208 29.4435 147.926 28.6098 147.454 27.8573C146.913 26.9711 146.177 26.2875 145.246 25.8069C144.314 25.3112 143.263 25.0633 142.091 25.0633C140.844 25.0633 139.71 25.3487 138.689 25.9195C137.667 26.4904 136.856 27.294 136.255 28.3305Z" fill="white"/>
<path d="M187.832 20.579C187.832 18.5661 188.291 16.7785 189.207 15.2162C190.123 13.639 191.407 12.4147 193.06 11.5434C194.727 10.6571 196.673 10.199 198.896 10.1689V15.6443C197.859 15.6594 196.973 15.8772 196.237 16.2978C195.516 16.7034 194.96 17.2967 194.569 18.0779C194.21 18.797 194.016 19.6307 193.987 20.579H198.761V25.784H193.984V45.41H187.832V25.784H183.866V20.579H187.832Z" fill="white"/>
<path fill-rule="evenodd" clip-rule="evenodd" d="M223.118 45.9512C220.609 45.9512 218.364 45.4027 216.381 44.3062C214.413 43.1946 212.866 41.6622 211.739 39.7096C210.627 37.7416 210.072 35.511 210.072 33.0173C210.072 30.5088 210.627 28.2705 211.739 26.3026C212.866 24.3198 214.413 22.78 216.381 21.6835C218.364 20.5869 220.609 20.0386 223.118 20.0386C225.642 20.0386 227.895 20.5869 229.878 21.6835C231.876 22.78 233.43 24.3122 234.542 26.2801C235.654 28.2479 236.217 30.4937 236.232 33.0173C236.217 35.511 235.654 37.7416 234.542 39.7096C233.445 41.6622 231.898 43.1946 229.9 44.3062C227.902 45.4027 225.642 45.9512 223.118 45.9512ZM223.118 40.2955C224.44 40.2955 225.612 39.995 226.633 39.394C227.655 38.7782 228.443 37.9218 228.999 36.8253C229.555 35.7137 229.833 34.4445 229.833 33.0173C229.833 31.5753 229.555 30.2984 228.999 29.1868C228.443 28.0752 227.655 27.219 226.633 26.6181C225.612 26.0022 224.44 25.6943 223.118 25.6943C221.811 25.6943 220.647 26.0022 219.626 26.6181C218.619 27.219 217.838 28.0752 217.282 29.1868C216.726 30.2984 216.456 31.5753 216.471 33.0173C216.471 34.4445 216.749 35.7137 217.305 36.8253C217.875 37.9218 218.657 38.7782 219.648 39.394C220.654 39.995 221.811 40.2955 223.118 40.2955Z" fill="white"/>
<path d="M242.879 20.5791H236.029L243.442 45.4101H249.436L254.312 29.5505L259.577 45.4101H265.48L272.915 20.5791H266.72L262.502 36.0348L257.841 20.5791H251.847L247.209 36.3753L242.879 20.5791Z" fill="white"/>
</svg>
